<svg viewBox="0 0 532 532" version="1.1" xmlns="http://www.w3.org/2000/svg" xmlns:xlink="http://www.w3.org/1999/xlink">
    <defs>
        <linearGradient x1="68.6795292%" y1="72.6062706%" x2="40.9866201%" y2="30.5949244%" id="linearGradient-1">
            <stop stop-color="#FFAFBD" offset="0%"></stop>
            <stop stop-color="#FFC3A0" offset="100%"></stop>
        </linearGradient>
    </defs>
    <g id="Symbols" stroke="none" stroke-width="1" fill="none" fill-rule="evenodd" opacity="0.5">
        <g id="graphic/empty-cart" fill="url(#linearGradient-1)" fill-rule="nonzero">
            <g id="Fill-1">
                <path d="M266.2565,270.140287 L266.1975,268 L266.4315,269.825293 L266.8025,276 L266.2565,270.140287 Z M265.467,270.293839 L265.696,268 L265.728,269.114271 L265.272,276 L265.467,270.293839 Z M266.761382,270.200068 L266,269 L267.072957,270.090047 L270,274 L266.761382,270.200068 Z M264.007576,270.34979 L265,269 L264.575758,269.920868 L262,274 L264.007576,270.34979 Z M264.7215,267.198828 L264.7605,267 L264.6275,269.067811 L264.2395,272 L264.6965,267.345333 L264.7215,267.198828 Z M266.125,268.097297 L266.114,268 L266.415,268.947748 L266.886,271 L266.146,268.241441 L266.125,268.097297 Z M264.288838,267.713698 L265,267 L263.934407,268.612505 L261,272 L264.288838,267.713698 Z M266.52,267.5055 L266.444,267.3225 L266.523,267.4595 L266.533,267.4895 L266.54,267.5485 L266.52,267.5055 L266.542,267.5605 L266.556,267.6775 L266.452,267.3665 L266.52,267.5055 Z M267.617502,267.582121 L267,267 L268.394297,267.856549 L271,270 L267.617502,267.582121 Z M263.712029,267.603164 L265,267 L263.81531,267.883982 L260,270 L263.712029,267.603164 Z M266.4455,267.476 L266.4145,267.311 L266.4465,267.354 L266.5855,267.689 L266.4455,267.476 Z M267.039493,268.629371 L266,267 L266.011177,267.009324 L266.245902,267.25641 L269,271 L267.039493,268.629371 Z M263.712195,268.08723 L265,267 L264.949826,267.083633 L264.918467,267.126799 L264.832753,267.240108 L262,270 L263.712195,268.08723 Z M265.469,267.3305 L265.544,267.1795 L265.566,267.3435 L265.434,267.8205 L265.469,267.3305 Z M266.5175,267.5675 L266.4825,267.4325 L266.5045,267.4615 L266.5175,267.5675 Z M268.181049,268.093201 L267,267 L267.780034,267.440031 L271,270 L268.181049,268.093201 Z M265.476,267.5075 L265.471,267.4125 L265.529,267.5875 L265.476,267.5075 Z M266.42,267.4475 L266.329,267.2615 L266.449,267.3545 L266.671,267.7385 L266.42,267.4475 Z M265.5305,267.3715 L265.6945,267.1865 L265.6875,267.2375 L265.6105,267.4195 L265.3055,267.8135 L265.5305,267.3715 Z M264.852029,267.223 L265,267.211 L264.045346,267.441 L262,267.789 L264.680191,267.242 L264.852029,267.223 Z M266.456,267.483 L266.436,267.443 L266.441,267.446 L266.563,267.554 L266.564,267.557 L266.456,267.483 Z M267.399798,267.2575 L267,267.1755 L268.916329,267.3315 L272,267.8245 L267.399798,267.2575 Z M264.705,267.3485 L264.733,267.3345 L264.71,267.3735 L264.637,267.4555 L264.621,267.4645 L264.668,267.3945 L264.608,267.4715 L264.267,267.6655 L264.544,267.4255 L264.698,267.3515 L264.668,267.3945 L264.705,267.3485 Z M264.4905,266.4665 L264.6575,266.4345 L264.6515,266.4395 L264.3425,266.5655 L264.4905,266.4665 Z M266.372,267.466 L266.218,267.329 L266.313,267.342 L266.412,267.383 L266.782,267.671 L266.372,267.466 Z M264.42,266.521 L264.58,266.479 L264.546,266.505 L264.42,266.521 Z M260.778865,267.209 L263,267.142 L261.093933,267.395 L254,267.858 L260.778865,267.209 Z M264.7155,266.4275 L264.7295,266.4265 L264.5465,266.5165 L264.7275,266.4415 L264.5875,266.5215 L264.5335,266.5395 L264.4845,266.5455 L264.5465,266.5165 L264.4685,266.5475 L264.2705,266.5735 L264.7155,266.4275 Z M265.493,266.48 L265.572,266.476 L265.428,266.524 L265.493,266.48 Z M266.1245,266.4515 L266.3235,266.4255 L266.8755,266.5745 L266.2825,266.5305 L266.1245,266.4515 Z M267,266.265 L268.065635,266.232 L276,266.768 L269.488443,266.522 L267,266.265 Z M264.528,266.5235 L264.447,266.4765 L264.553,266.5205 L264.528,266.5235 Z M266.408,266.529 L266.598,266.466 L266.504,266.528 L266.402,266.534 L266.408,266.529 Z M264.639,266.563 L264.179,266.437 L264.683,266.472 L264.821,266.541 L264.639,266.563 Z M266.4715,266.4965 L266.5505,266.4865 L266.4495,266.5135 L266.4715,266.4965 Z M266.541,266.459 L266.677,266.442 L266.33,266.558 L266.504,266.474 L266.323,266.547 L266.459,266.47 L266.533,266.46 L266.504,266.474 L266.541,266.459 Z M266.3515,265.555 L266.6825,265.419 L266.4815,265.55 L266.3175,265.581 L266.3515,265.555 Z M262.837407,266.7205 L256,266.2795 L261.698193,266.4655 L264,266.6905 L262.837407,266.7205 Z M265.519,265.5565 L265.481,265.4435 L265.515,265.4955 L265.519,265.5565 Z M264.584,265.612 L264.187,265.307 L264.628,265.53 L264.813,265.693 L264.757,265.685 L264.584,265.612 Z M265.4935,265.552 L265.4755,265.408 L265.5245,265.592 L265.4935,265.552 Z M266.368,265.5435 L266.763,265.3165 L266.467,265.5715 L266.276,265.6645 L266.274,265.6655 L266.237,265.6835 L266.246,265.6675 L266.343,265.5585 L266.351,265.5535 L266.282,265.6555 L266.368,265.5435 Z M265.5255,265.6015 L265.3365,265.2705 L265.5725,265.5425 L265.6455,265.6925 L265.6175,265.6735 L265.6475,265.6965 L265.6635,265.7295 L265.6365,265.7135 L265.5405,265.6275 L265.5335,265.6155 L265.6175,265.6735 L265.5255,265.6015 Z M268.858292,265.5635 L275,265.1995 L269.109525,265.7445 L267,265.8005 L268.858292,265.5635 Z M262.93712,265.6315 L260,265.2335 L264.59432,265.6935 L264.924949,265.7505 L265,265.7665 L262.93712,265.6315 Z M265.559,265.65 L265.431,265.337 L265.536,265.495 L265.569,265.663 L265.559,265.65 Z M266.3855,265.584 L266.6725,265.217 L266.4655,265.629 L266.3275,265.783 L266.3395,265.694 L266.3855,265.584 Z M265.452,265.446 L265.429,265.272 L265.57,265.699 L265.494,265.548 L265.569,265.728 L265.485,265.583 L265.46,265.509 L265.454,265.467 L265.494,265.548 L265.452,265.446 Z M267.944514,265.5825 L270,265.1305 L267.258105,265.8355 L267.05798,265.8635 L267,265.8695 L267.944514,265.5825 Z M265.424,265.685 L265.576,265.126 L265.531,265.71 L265.448,265.874 L265.424,265.685 Z M266.280662,265.734066 L270,263 L267.615516,264.969231 L266,266 L266.280662,265.734066 Z M264.78453,265.853659 L262,263 L263.911602,264.710904 L265,266 L264.939227,265.963415 L264.78453,265.853659 Z M262.090109,265.582908 L258,263 L261.641323,265.001276 L263,266 L262.090109,265.582908 Z M264.5605,264.039908 L264.1985,262 L264.7725,264.696086 L264.7855,264.811205 L264.8015,265 L264.5605,264.039908 Z M263.399266,264.943266 L260,262 L264.276101,265.280229 L265,266 L263.399266,264.943266 Z M268.09892,264.916484 L272,262 L268.188386,265.246154 L267,266 L268.09892,264.916484 Z M267.864301,263.595344 L270,261 L267.572025,264.391778 L267,265 L267.864301,263.595344 Z M265.5,261.0705 L265.5,261.9295 L265.5,261.0705 Z M266.447388,264.207404 L269,261 L267.08327,263.828776 L266,265 L266.447388,264.207404 Z M264.125658,263.826158 L262,260 L264.390132,263.700244 L265,265 L264.125658,263.826158 Z M266.338,263.056129 L266.82,260 L266.255,264.626377 L266.18,265 L266.338,263.056129 Z M266.2265,263.864586 L266.7745,256 L266.5175,262.496663 L266.2525,265 L266.2255,264.087406 L266.2265,263.864586 Z M264.6115,263.133786 L264.1405,256 L264.7885,262.737683 L264.8595,265 L264.6115,263.133786 Z M266,0 C265.840474,0 265.680947,0 265.521421,0 C265.466994,0 265.40506,0 265.350634,0 C265.247411,0 265.144188,0 265.040965,0 C264.977154,0 264.90396,0 264.840149,0 L264.556755,0 C264.494821,0 264.415996,0.00563034459 264.354063,0.00563034459 L264.068792,0.00750712613 C264.004981,0.00750712613 263.926156,0.00750712613 263.864223,0.00750712613 C263.715957,0.00938390766 263.567691,0.0112606892 263.417549,0.0131374707 C263.338724,0.0131374707 263.261776,0.0131374707 263.182951,0.0150142523 C263.106003,0.0150142523 263.029055,0.0168910338 262.952107,0.0168910338 C262.852637,0.0187678153 262.78132,0.0187678153 262.68185,0.0206445968 C262.616163,0.0206445968 262.550476,0.0225213784 262.484788,0.0225213784 C262.385319,0.0243981599 262.289603,0.0262749414 262.190133,0.0262749414 C262.143214,0.028151723 262.096294,0.028151723 262.047498,0.028151723 C261.931138,0.0300285045 261.824161,0.031905286 261.707801,0.0337820676 C261.698417,0.0337820676 261.69091,0.0337820676 261.683402,0.0337820676 C257.554483,0.0994694212 253.453715,0.258995851 249.375469,0.510484577 L265.174216,256.73996 L235.941467,23.7581774 C235.346527,23.8332487 234.749711,23.9101967 234.152894,23.9908983 L231.320831,2.24087715 L231.313324,2.24087715 C227.539116,2.73259391 223.78743,3.3031355 220.063895,3.95250191 C220.003838,3.96188581 219.936274,3.97502328 219.876217,3.98440719 C219.795515,3.99942144 219.712937,4.01255891 219.632235,4.02757317 C219.538396,4.0444642 219.455818,4.05760167 219.360102,4.0744927 C219.324443,4.08199983 219.286908,4.08763018 219.251249,4.0951373 C217.800497,4.35225637 216.351621,4.62063613 214.908376,4.90215336 L264.312773,258.856969 L204.343973,29.8539638 C203.865394,29.9797082 203.386815,30.1073293 202.906358,30.2349505 L197.230971,8.97476928 C191.855869,10.4086304 186.546454,12.009525 181.310233,13.7661925 L265.283069,263.969322 L264.896452,262.520447 L265.211752,263.481359 L265.339373,264.132602 L265.326235,264.09882 L265.283069,263.969322 L265.29996,264.038763 L249.724551,226.413047 L173.613552,40.1049445 C173.324528,40.2231818 173.033627,40.3432958 172.742726,40.4634098 L164.323484,20.1247284 C162.401659,20.9204837 160.492973,21.7368837 158.59367,22.575805 C158.586163,22.5795586 158.573025,22.5851889 158.565518,22.5870657 C158.413499,22.6546299 158.261479,22.722194 158.10946,22.7897581 C158.101953,22.7935117 158.111337,22.7897581 158.10383,22.7916349 C157.78853,22.9323935 157.473231,23.0731521 157.157932,23.2139108 L157.152302,23.2176643 C157.000282,23.2852285 156.846386,23.3546694 156.694367,23.4241103 C156.68686,23.4278639 156.681229,23.4297406 156.673722,23.4334942 C154.151328,24.5727006 151.647701,25.7494426 149.166596,26.9637203 L229.515367,191.048853 L263.207349,260.668064 L212.982799,173.707391 L144.697979,54.1939435 C144.512178,54.2990433 144.328253,54.4060198 144.142452,54.5111196 L133.159526,35.4936923 C128.353089,38.2694522 123.638614,41.1934778 119.027361,44.2563853 L207.498843,177.470338 L262.46602,261.073448 L214.559295,198.608529 L118.18281,71.7287133 C117.985748,71.8769791 117.790562,72.0271216 117.595377,72.1753874 L104.268352,54.7982672 C104.221432,54.833926 104.165129,54.877092 104.120086,54.9127508 C104.063782,54.95404 104.007479,54.997206 103.953052,55.040372 C103.86672,55.1060593 103.786019,55.1679931 103.699687,55.2355572 C103.677165,55.2524483 103.654644,55.2693393 103.632123,55.2881071 C101.443795,56.9753337 99.2742359,58.7038495 97.1422121,60.4586403 C97.1234442,60.4755313 97.1027997,60.4924223 97.0821551,60.5074366 C96.9995767,60.5768775 96.9207518,60.6406881 96.8362967,60.710129 C96.7931307,60.7457878 96.7499647,60.7814467 96.7067987,60.8171055 C96.635481,60.8752858 96.5641634,60.9353428 96.4928457,60.993523 C96.3896227,61.0798549 96.2863997,61.1643101 96.1831767,61.2506421 C96.1249965,61.2975616 96.068693,61.3463579 96.0105128,61.3951542 C95.9448254,61.4495809 95.8791381,61.5040076 95.8134507,61.5584342 C95.7627776,61.5997234 95.7214884,61.6353823 95.6708153,61.6785482 C95.5863602,61.7479892 95.5037818,61.8174301 95.4193266,61.886871 C95.381791,61.9187763 95.3498857,61.946928 95.3104733,61.9788333 C95.0683685,62.1815257 94.8243869,62.3860949 94.5822821,62.5906641 C94.5578839,62.6113087 94.5259786,62.6394604 94.4997037,62.660105 C94.3964807,62.7483137 94.2913809,62.8365225 94.1881579,62.9228544 C94.1693901,62.9397454 94.1506223,62.9566365 94.1299777,62.9735275 C93.878489,63.1874806 93.6251235,63.4014337 93.3736347,63.6172636 C93.3604973,63.6285243 93.3492366,63.6379082 93.3360991,63.6472921 C93.225369,63.7430079 93.1127621,63.8387238 93.002032,63.9344396 C92.9813874,63.9513307 92.9551125,63.9757288 92.9363447,63.9907431 C92.8199842,64.0920893 92.7036237,64.1915587 92.5872633,64.2910281 C92.5797562,64.2966585 92.5760026,64.300412 92.5684955,64.3060424 C92.4427511,64.4148957 92.3170067,64.523749 92.1912624,64.6326024 C92.1781249,64.6438631 92.1537268,64.6663844 92.1405893,64.6757684 C92.0392431,64.7639771 91.9378969,64.8521858 91.8365507,64.9385178 C91.799015,64.9722998 91.7558491,65.0079587 91.7183134,65.0417408 C91.6469957,65.1036745 91.5738013,65.1674851 91.5024836,65.2294189 C91.4630711,65.263201 91.4330426,65.2894759 91.395507,65.323258 L233.415319,228.411819 L264.819504,264.813874 L264.09319,264.085683 L94.3664522,92.3902012 C94.1037028,92.6510739 93.8390766,92.9119465 93.5763272,93.1746959 L78.1266616,77.6912483 C76.946166,78.8698671 75.7619169,80.0747608 74.6020659,81.275901 L74.5457624,81.3322044 C74.4838286,81.3978918 74.4256484,81.4579488 74.3637146,81.5236362 C74.3111647,81.576186 74.2604916,81.6287359 74.2098185,81.6831626 C74.1591454,81.7357125 74.1122259,81.7845088 74.059676,81.8389355 C73.9883583,81.9140067 73.9170406,81.989078 73.8438461,82.0641492 C73.8100641,82.0998081 73.7800356,82.1317134 73.7443767,82.1673722 C73.6317698,82.2856095 73.5210397,82.4000931 73.4103096,82.5183304 C73.4046793,82.5239607 73.3971721,82.5295911 73.3915418,82.5370982 C73.286442,82.6478283 73.1794655,82.7604352 73.0743657,82.8711653 C73.0555979,82.8899331 73.0387069,82.9087009 73.0218158,82.9274687 C72.9110857,83.0438292 72.8022324,83.1583129 72.6915023,83.2746733 L72.6896255,83.2765501 C71.6273671,84.402619 70.5726159,85.5361951 69.5272486,86.679155 C69.5178647,86.6922925 69.4953433,86.7148139 69.4840826,86.7279513 C69.3789829,86.842435 69.2738831,86.9569187 69.1687833,87.0732791 L69.1518923,87.092047 C69.0392854,87.2159145 68.9266785,87.3416589 68.8121948,87.4655265 C68.8009342,87.478664 68.793427,87.4861711 68.7821663,87.4993086 C68.6920808,87.6006548 68.6001185,87.702001 68.5081562,87.8014704 C68.4631135,87.8521435 68.4237011,87.8971862 68.3786583,87.9459826 C68.3242316,88.0060396 68.269805,88.0679734 68.2153783,88.1280304 C68.1590749,88.1899642 68.106525,88.2481444 68.0520983,88.3100782 L67.9451218,88.4301922 C67.5322298,88.8862501 67.1343522,89.3348009 66.7270906,89.7946124 L262.569243,263.096619 L73.4403381,115.95507 C73.1325459,116.351071 72.8266305,116.748949 72.5207152,117.146826 L55.1736235,103.778512 C54.1226258,105.142932 53.0866424,106.516736 52.0619197,107.899924 C52.0412751,107.926199 52.0356447,107.935583 52.0150001,107.961858 C51.9342985,108.072588 51.8517201,108.185195 51.7691418,108.295925 C51.7484972,108.3222 51.7316061,108.344721 51.7128383,108.370996 C51.6227528,108.494864 51.5326673,108.618731 51.440705,108.742599 C51.4350746,108.748229 51.4294443,108.755736 51.4256907,108.763243 C51.3318517,108.890864 51.2380126,109.018486 51.1441735,109.146107 C51.114145,109.187396 51.0991308,109.209917 51.0691022,109.24933 C50.9996613,109.343169 50.9320972,109.437008 50.8645331,109.530847 C50.8345046,109.572136 50.7988457,109.620932 50.7688172,109.660345 C50.7012531,109.754184 50.6336889,109.848023 50.5661248,109.939985 C50.5417266,109.973767 50.5173285,110.007549 50.4929303,110.041332 L50.2264273,110.411057 C50.1963988,110.45047 50.1701239,110.486129 50.1419722,110.527418 C50.074408,110.61938 50.0087207,110.713219 49.9411565,110.805182 C49.911128,110.846471 49.8829763,110.88776 49.8529478,110.927172 C49.7835069,111.022888 49.7159428,111.118604 49.6465018,111.216197 C49.627734,111.242472 49.5958287,111.285638 49.5770609,111.311913 C49.4832219,111.443287 49.3893828,111.574662 49.2974205,111.70416 L49.2899134,111.715421 C49.1979511,111.841165 49.1078655,111.968786 49.01778,112.096407 C48.9971354,112.124559 48.9746141,112.158341 48.9539695,112.184616 C48.8788982,112.291593 48.8038269,112.396692 48.7287557,112.503669 C48.7099879,112.529944 48.69122,112.558096 48.6724522,112.584371 C48.4810205,112.854627 48.2895888,113.124884 48.1000339,113.39514 C48.0962803,113.402647 48.0850196,113.419538 48.0793893,113.425169 C47.9930573,113.549036 47.9067254,113.672904 47.8203934,113.796771 C47.8053792,113.815539 47.7903649,113.838061 47.7772274,113.858705 C47.4863263,114.273474 47.1991787,114.688243 46.9120312,115.104888 L46.9007705,115.119902 C46.4109305,115.829326 45.9248441,116.542503 45.4406344,117.259433 L259.455663,261.869204 L55.6165439,142.241272 C55.340657,142.710468 55.0666469,143.18154 54.7945136,143.652612 L35.8014845,132.624644 C34.878108,134.216154 33.9772528,135.805788 33.0857816,137.417944 C33.0782745,137.431081 33.0707674,137.444219 33.0632602,137.459233 C33.0107104,137.553072 32.9525301,137.660049 32.8999802,137.755764 C32.8812124,137.78767 32.8643214,137.821452 32.8455536,137.853357 C32.7930037,137.949073 32.7348235,138.054173 32.6822736,138.149889 C32.5602828,138.371349 32.438292,138.596563 32.318178,138.818023 C32.3087941,138.83116 32.3012869,138.846174 32.2937798,138.861189 C32.2412299,138.956905 32.1943104,139.043237 32.1417605,139.138952 C32.1192391,139.180242 32.0967177,139.223408 32.0723196,139.264697 C32.0254001,139.352905 31.9728502,139.452375 31.9240538,139.540584 C31.9109164,139.566859 31.8977789,139.591257 31.8827647,139.617532 C31.6988401,139.955352 31.5261762,140.276282 31.3460051,140.615979 C31.3422516,140.619733 31.3403748,140.625363 31.338498,140.629117 C30.1636328,142.823075 29.0225496,145.028293 27.9077414,147.259786 L261.394378,263.92991 L41.2066153,170.959783 C41.0301978,171.380182 40.8537804,171.798705 40.6792397,172.22098 L20.3593261,163.752942 C19.4584709,165.918748 18.5895211,168.082677 17.7430926,170.276635 C17.7299551,170.312294 17.7149409,170.347952 17.7018034,170.383611 C17.6680213,170.47182 17.6361161,170.552522 17.6042108,170.64073 C17.576059,170.712048 17.5479073,170.783366 17.5197556,170.854683 C17.4972342,170.918494 17.4709593,170.986058 17.4465611,171.047992 L17.3020489,171.428979 C17.2964186,171.443993 17.2907882,171.455254 17.2851579,171.472145 C17.2251009,171.629794 17.1650439,171.789321 17.1049869,171.948847 C17.1012333,171.956354 17.1031101,171.952601 17.0993565,171.960108 C17.0411763,172.117757 16.9811193,172.27353 16.9229391,172.43118 C16.9210623,172.438687 16.9210623,172.43681 16.9173087,172.444317 C16.3111083,174.056473 15.7217989,175.676135 15.145627,177.303305 C15.1343663,177.33521 15.1306127,177.350224 15.1174752,177.38213 C15.076186,177.49849 15.0348968,177.616727 14.9954844,177.733088 C14.9729631,177.796898 14.9541952,177.847571 14.9316739,177.911382 C14.9091525,177.978946 14.8847543,178.044634 14.8622329,178.112198 C14.7252279,178.504445 14.5863461,178.900446 14.4512178,179.29457 L261.739706,264.515466 L263.81918,265.243657 L200.220684,248.110518 L30.5971693,201.568213 C30.5258516,201.830963 30.4545339,202.095589 30.3813394,202.360215 L9.13429571,196.637908 C8.32915644,199.620114 7.57656704,202.624841 6.87652753,205.650213 C6.86714362,205.683995 6.8596365,205.719654 6.85025259,205.753436 C6.82397765,205.87355 6.79582592,205.993664 6.7676742,206.111901 C6.75641351,206.162574 6.74702961,206.207617 6.73576892,206.25829 C6.71137076,206.361513 6.6869726,206.462859 6.66445122,206.567959 C6.63817628,206.68432 6.61190133,206.793173 6.58562639,206.91141 C6.56873536,206.988358 6.55184433,207.065306 6.53307651,207.142254 C6.51055513,207.243601 6.48991054,207.339316 6.46738916,207.440663 C6.45612847,207.487582 6.44674456,207.532625 6.43548387,207.579544 C6.41108571,207.688398 6.38668755,207.795374 6.36228939,207.904228 C6.35665905,207.932379 6.3510287,207.960531 6.34352158,207.988683 C5.98693308,209.593331 5.64348206,211.20361 5.31692208,212.819519 L150.328324,242.243699 L257.805972,264.575523 L123.131883,246.723577 L24.1260266,233.131925 C24.105382,233.283944 24.0847374,233.43784 24.0640928,233.591737 L2.31970197,230.709 C2.31594841,230.742782 2.30844128,230.791578 2.30468772,230.825361 C2.29530381,230.898555 2.28591991,230.967996 2.276536,231.04119 C2.26715209,231.118138 2.25776818,231.183826 2.24838427,231.260774 C2.22773968,231.416547 2.20709508,231.57232 2.18645048,231.728092 C2.18645048,231.737476 2.1845737,231.74686 2.1845737,231.756244 C2.16392911,231.913894 2.14328451,232.071543 2.12263991,232.229193 C2.12076313,232.246084 2.11888635,232.264852 2.11700957,232.281743 C2.09824175,232.431886 2.07759716,232.583905 2.05882934,232.735924 C2.05882934,232.743431 2.05507578,232.771583 2.053199,232.780967 C1.86364406,234.312421 1.68534982,235.849505 1.52019304,237.388466 L1.52019304,237.397849 C1.46576638,237.900827 1.41321649,238.405681 1.36254339,238.910535 C1.35878983,238.946194 1.35691305,238.970592 1.35315948,239.006251 C1.34002201,239.131996 1.32688454,239.25774 1.31562385,239.385361 C1.30999351,239.437911 1.30623995,239.47357 1.3006096,239.52612 L1.26682753,239.86394 C1.26119719,239.91649 1.25744363,239.96904 1.25181328,240.02159 C1.24055259,240.151088 1.22741512,240.280586 1.21427765,240.410084 C1.20489374,240.515184 1.19550984,240.61653 1.18424915,240.72163 C1.1786188,240.789194 1.17298846,240.854881 1.16735811,240.922445 C1.15609742,241.027545 1.14671352,241.132645 1.13732961,241.237744 C1.13357604,241.28091 1.12982248,241.325953 1.12606892,241.369119 C1.11480823,241.483603 1.10354754,241.592456 1.09416363,241.70694 C1.09228685,241.736968 1.08853329,241.76512 1.08665651,241.793272 C0.923376513,243.606243 0.776987554,245.428598 0.64936641,247.252829 L146.002342,257.372435 L261.895479,265.977479 L254.628581,265.960588 L21.8776423,264.370954 C21.8757655,264.723789 21.8738887,265.076623 21.8738887,265.431335 L0,265.380662 C0,265.468871 0,265.55708 0,265.645288 L0,266 L0,266.471072 L0,266.624968 C0,266.730068 0,266.835168 0,266.940268 C0,267.002201 0,267.064135 0,267.126069 C0,267.221785 0,267.319377 0,267.413216 C0,267.477027 0,267.538961 0,267.600895 C0,267.698487 0.00563034459,267.79608 0.00563034459,267.893673 C0.00563034459,267.955606 0.00750712613,268.015663 0.00750712613,268.079474 C0.00750712613,268.184574 0.00938390766,268.287797 0.00938390766,268.392896 C0.0112606892,268.447323 0.0112606892,268.492366 0.0112606892,268.546793 C0.0131374707,268.702565 0.0150142523,268.858338 0.0168910338,269.014111 L0.0168910338,269.061031 C0.0187678153,269.203666 0.0206445968,269.344425 0.0225213784,269.488937 C0.0225213784,269.532103 0.0243981599,269.590283 0.0243981599,269.635326 C0.0262749414,269.740426 0.0262749414,269.847402 0.028151723,269.952502 C0.0300285045,270.016312 0.0300285045,270.074493 0.031905286,270.136426 C0.0337820676,270.234019 0.0337820676,270.331612 0.0356588491,270.429204 C0.0375356306,270.491138 0.0375356306,270.549318 0.0394124122,270.611252 L0.0431659752,270.913414 C0.0450427568,270.965964 0.0450427568,271.027898 0.0469195383,271.080448 C0.0487963198,271.194931 0.0506731013,271.309415 0.0544266644,271.423899 C0.0544266644,271.467065 0.0563034459,271.510231 0.0563034459,271.553397 C0.060057009,271.709169 0.0638105721,271.863066 0.0656873536,272.016962 C0.0675641351,272.062004 0.0675641351,272.088279 0.0694409167,272.131445 C0.0713176982,272.249682 0.0750712613,272.36792 0.0769480428,272.486157 C0.0788248243,272.540584 0.0788248243,272.604394 0.0807016058,272.656944 C0.0825783874,272.756414 0.0863319504,272.855883 0.088208732,272.955352 C0.0900855135,273.02667 0.091962295,273.082973 0.0938390766,273.154291 C0.0957158581,273.240623 0.0994694212,273.326955 0.101346203,273.415164 C0.103222984,273.486482 0.105099766,273.56343 0.106976547,273.634747 C0.108853329,273.711695 0.112606892,273.786767 0.114483673,273.863715 C0.116360455,273.951923 0.118237236,274.023241 0.120114018,274.113327 C0.1219908,274.179014 0.123867581,274.244701 0.127621144,274.310389 C0.129497926,274.400474 0.131374707,274.486806 0.13512827,274.575015 L0.13512827,274.591906 C0.144512178,274.849025 0.152019304,275.106144 0.161403212,275.36514 C0.161403212,275.389538 0.163279993,275.415813 0.163279993,275.440211 C0.168910338,275.565955 0.172663901,275.680439 0.176417464,275.804307 C0.178294245,275.828705 0.178294245,275.85498 0.180171027,275.877501 C0.18392459,276.003246 0.189554935,276.125236 0.193308498,276.249104 C0.195185279,276.271625 0.195185279,276.29227 0.195185279,276.312915 C0.268379759,278.214094 0.360342054,280.117151 0.472948946,282.00707 L256.848813,266.790125 L23.6887365,295.497375 C23.761931,296.092315 23.8370022,296.689132 23.9158271,297.285948 L2.16017554,300.067338 C2.16768267,300.118011 2.17331301,300.166808 2.18082014,300.217481 C2.18832727,300.277538 2.19395761,300.335718 2.20334152,300.393898 C2.21460221,300.489614 2.22773968,300.589084 2.24087715,300.684799 C2.24650749,300.727965 2.25213784,300.771131 2.25776818,300.816174 C2.28967347,301.058279 2.31970197,301.294753 2.35348404,301.536858 C2.36662151,301.645712 2.38351254,301.756442 2.39665002,301.861542 C2.40228036,301.906584 2.4079107,301.953504 2.41541783,301.998547 C2.42667852,302.094262 2.44356955,302.206869 2.45670702,302.302585 C2.46233737,302.357012 2.4698445,302.409562 2.47735162,302.462112 C2.49048909,302.557827 2.50550334,302.662927 2.51864082,302.756766 C2.52614794,302.809316 2.53365507,302.859989 2.54116219,302.912539 C2.56743713,303.102094 2.59371208,303.291649 2.61998702,303.483081 L2.63875483,303.621963 C2.6518923,303.708295 2.66502977,303.796503 2.67629046,303.882835 C2.68755115,303.952276 2.69693506,304.021717 2.70631897,304.091158 C2.71945644,304.17749 2.73071713,304.260068 2.74197782,304.3464 C2.75323851,304.419595 2.7644992,304.492789 2.77575988,304.565984 C2.78514379,304.642932 2.79828126,304.723633 2.80954195,304.800581 C2.82080264,304.88879 2.83394011,304.975122 2.84895436,305.063331 C2.85833827,305.132772 2.86772218,305.198459 2.87710609,305.2679 C2.89962747,305.416166 2.92214884,305.564431 2.94279344,305.712697 C2.95217735,305.76337 2.95968447,305.819674 2.96906838,305.870347 C2.98408263,305.975447 2.99909689,306.080546 3.01411114,306.185646 C3.02349505,306.245703 3.03287895,306.30013 3.04226286,306.360187 C3.05727711,306.46904 3.07416815,306.576017 3.09105918,306.68487 C3.09856631,306.73742 3.10607343,306.782463 3.11358056,306.833136 C3.13422516,306.96451 3.15486975,307.094008 3.17551435,307.225383 C3.17926791,307.251658 3.18302148,307.277933 3.18677504,307.304208 C3.2111732,307.465611 3.23744814,307.627014 3.26372308,307.788418 C3.26559986,307.807185 3.27123021,307.839091 3.27498377,307.855982 C3.29562837,307.992987 3.31814975,308.129992 3.33879434,308.266997 C3.34630147,308.308286 3.35193181,308.349575 3.35943894,308.392741 C3.37820676,308.516609 3.39885135,308.642353 3.41949595,308.766221 C3.42512629,308.800003 3.43075664,308.835662 3.43638698,308.869444 C3.46078514,309.017709 3.48330652,309.167852 3.50958146,309.316118 C3.50958146,309.325502 3.51333503,309.340516 3.51521181,309.3499 C3.56776169,309.67646 3.62218836,310.00302 3.67661502,310.32958 C3.68224536,310.363362 3.68787571,310.391514 3.69350605,310.427172 C3.71415065,310.55667 3.73667203,310.689922 3.75919341,310.81942 C3.76294697,310.845695 3.77233088,310.894491 3.77608444,310.920766 C3.8004826,311.067155 3.82675754,311.211667 3.8511557,311.356179 C3.85490927,311.374947 3.85490927,311.382454 3.85866283,311.399345 C3.88681455,311.564502 3.91496627,311.729659 3.94499478,311.894816 C3.94687156,311.911707 3.94874834,311.917337 3.95062512,311.934228 C3.97502328,312.074987 3.99942144,312.217622 4.02569638,312.358381 C4.03320351,312.401547 4.04258742,312.459727 4.05009454,312.502893 C4.06886236,312.613623 4.08950696,312.724353 4.10827477,312.833206 L4.1364265,312.987102 C4.15519431,313.095956 4.17583891,313.202932 4.19460672,313.309909 C4.20399063,313.360582 4.21525132,313.422516 4.22275845,313.475066 C4.24527982,313.593303 4.26592442,313.713417 4.2884458,313.831654 C4.3090904,313.951768 4.33161177,314.066252 4.35225637,314.184489 C4.36164028,314.237039 4.37290097,314.289589 4.38040809,314.342139 C4.40105269,314.445362 4.41982051,314.552338 4.43858832,314.655561 C4.44609545,314.694974 4.45360257,314.734386 4.4611097,314.773798 C4.48363108,314.892036 4.50427568,315.004643 4.52679705,315.124757 C4.52867384,315.130387 4.52867384,315.136017 4.53055062,315.143524 C4.613129,315.593952 4.69758417,316.034996 4.78391612,316.485423 L258.734979,267.694734 L29.7075749,327.096746 C29.8333192,327.580956 29.9590636,328.063288 30.0885615,328.547498 L8.81524285,334.172212 C9.50402167,336.779062 10.2284593,339.35776 10.9941862,341.932704 C11.0016933,341.953349 11.0073237,341.97587 11.0148308,341.996515 C11.0504897,342.118505 11.0842717,342.231112 11.1199306,342.353103 C11.1236841,342.362487 11.1255609,342.371871 11.1293145,342.381255 C11.2381678,342.749104 11.3545283,343.131967 11.4652584,343.499817 C11.4708887,343.516708 11.4765191,343.531722 11.4802726,343.548613 C11.5178083,343.670604 11.5497135,343.773827 11.5872492,343.895817 C11.5928795,343.916462 11.6003866,343.937107 11.606017,343.957751 C12.2366156,346.020334 12.8897356,348.064149 13.5691305,350.104211 L263.961815,266.718807 L262.360921,267.14296 L263.423179,266.793879 L264.141986,266.656874 L264.104451,266.671888 L263.961815,266.718807 L264.038763,266.70004 L227.997051,281.520983 L39.8872379,357.855318 C40.0054751,358.148096 40.1255891,358.440874 40.2457032,358.733652 L19.8882539,367.105975 C21.2751954,370.476674 22.7297011,373.815469 24.2480174,377.116727 C24.3230886,377.278131 24.3944063,377.433903 24.4676008,377.5878 C24.6083594,377.895592 24.7491181,378.19963 24.8917535,378.503669 C24.9067677,378.533697 24.9142748,378.550588 24.9292891,378.580617 C24.9855925,378.704485 25.0437728,378.828352 25.101953,378.950343 C25.1169672,378.982248 25.1263511,379.00477 25.1413654,379.034798 C25.2089295,379.17931 25.2783704,379.323822 25.3459346,379.470211 C25.4191291,379.625984 25.4923235,379.77988 25.5673948,379.935653 C25.5711484,379.94316 25.5711484,379.946914 25.5749019,379.954421 C25.6443428,380.098933 25.711907,380.241569 25.7813479,380.384204 C25.7869782,380.399218 25.7963621,380.416109 25.8038693,380.431124 C26.0966472,381.048585 26.3931787,381.664169 26.6934637,382.277877 L191.949708,301.831513 L260.698092,268.760746 L173.780586,318.690641 L53.9124263,386.808427 C54.017526,386.994229 54.1245026,387.18003 54.2296023,387.365831 L35.1859001,398.305591 C37.171535,401.762622 39.2341179,405.172734 41.3680185,408.530297 C41.3736489,408.537804 41.3717721,408.535927 41.3755256,408.543434 C41.4618576,408.676686 41.5463128,408.809937 41.6307679,408.943189 C41.6401518,408.956326 41.6514125,408.975094 41.6607964,408.988231 C41.7471284,409.12336 41.8334603,409.260365 41.9197923,409.395493 C41.947944,409.436782 41.9667118,409.466811 41.9929868,409.5081 C42.0474134,409.592555 42.0999633,409.675133 42.1525132,409.757712 C42.2031863,409.83466 42.2519826,409.909731 42.3026557,409.986679 C42.3270539,410.026091 42.351452,410.065504 42.377727,410.104916 C42.884458,410.891288 43.3986961,411.677659 43.9129343,412.4584 L176.886659,324.589366 L261.024652,269.550871 L197.621342,317.945559 L71.3908927,413.370516 C71.5372816,413.565701 71.6836706,413.75901 71.8319363,413.954195 L54.4229108,427.241808 C54.4416787,427.268083 54.4585697,427.288728 54.4792143,427.315003 C54.5636695,427.42761 54.6500014,427.53834 54.7344566,427.64907 C54.7382101,427.656577 54.7344566,427.64907 54.7382101,427.6547 C58.0075636,431.920625 61.4026614,436.083326 64.9178732,440.139051 L227.281997,299.408588 L264.74068,267.242429 L262.9446,269.023495 L91.9979539,437.23567 C92.255073,437.49842 92.5140688,437.759292 92.7749414,438.022042 L77.255835,453.434172 C77.2783563,453.45857 77.3083848,453.488598 77.3309062,453.51112 C77.3684418,453.546778 77.4022239,453.584314 77.4397595,453.619973 C77.539229,453.719442 77.6274377,453.809528 77.7269071,453.908997 C77.8001016,453.982192 77.8732961,454.055386 77.9464906,454.128581 C77.9877798,454.16987 78.0271922,454.209282 78.0684814,454.248695 C78.1435526,454.325643 78.2205007,454.400714 78.2974487,454.477662 C78.3312308,454.513321 78.3631361,454.543349 78.3969181,454.579008 C78.5020179,454.682231 78.6071177,454.785454 78.7103406,454.888677 C78.715971,454.896184 78.7216013,454.901815 78.7291085,454.907445 C82.1730026,458.321311 85.708859,461.63946 89.3329241,464.861894 L263.145415,269.355685 L115.51215,458.214334 C115.906274,458.520249 116.300398,458.828042 116.696399,459.133957 L103.290548,476.447267 C105.338117,478.033147 107.410084,479.590876 109.504572,481.116699 C109.525217,481.131713 109.530847,481.137344 109.551492,481.152358 C109.660345,481.231183 109.771075,481.311884 109.879928,481.390709 C109.91371,481.415107 109.949369,481.441382 109.983151,481.46578 C110.090128,481.542729 110.198981,481.621553 110.305958,481.700378 C110.326602,481.713516 110.354754,481.73416 110.375399,481.749174 C110.499266,481.83926 110.625011,481.929346 110.750755,482.019431 C110.790167,482.04946 110.83521,482.081365 110.876499,482.109517 C110.959078,482.169574 111.041656,482.227754 111.122358,482.287811 C111.178661,482.327223 111.231211,482.364759 111.283761,482.402294 L111.505221,482.559944 C111.557771,482.599357 111.621582,482.644399 111.674131,482.681935 C111.790492,482.764513 111.904976,482.847092 112.021336,482.92967 C112.075763,482.969082 112.128313,483.004741 112.180862,483.044154 C112.25218,483.09295 112.319744,483.141746 112.389185,483.190543 C112.456749,483.239339 112.518683,483.282505 112.586247,483.329425 C112.648181,483.372591 112.708238,483.415756 112.770172,483.458922 C112.837736,483.507719 112.89967,483.550885 112.967234,483.599681 C113.027291,483.64097 113.083594,483.680383 113.143651,483.721672 C113.265642,483.808004 113.382003,483.890582 113.50587,483.976914 C113.562174,484.016327 113.620354,484.057616 113.678534,484.097028 C113.746098,484.145825 113.811786,484.190867 113.87935,484.239664 C113.93753,484.279076 113.997587,484.320365 114.055767,484.361654 C114.125208,484.410451 114.196526,484.459247 114.26409,484.506167 C114.327901,484.551209 114.393588,484.598129 114.459275,484.643172 C114.521209,484.684461 114.570005,484.718243 114.631939,484.761409 C114.746423,484.84211 114.862783,484.920935 114.979144,485.001637 C115.039201,485.044803 115.099258,485.086092 115.161192,485.127381 C115.230632,485.176178 115.30195,485.224974 115.373268,485.27377 C115.427695,485.311306 115.487752,485.352595 115.542178,485.390131 C115.62288,485.446434 115.703581,485.500861 115.784283,485.557164 C115.831203,485.58907 115.872492,485.617221 115.921288,485.651003 C116.048909,485.737335 116.17653,485.825544 116.304151,485.911876 C116.324796,485.92689 116.345441,485.940028 116.366085,485.953165 C116.478692,486.03199 116.593176,486.108938 116.705783,486.185886 C116.71892,486.19527 116.733934,486.204654 116.747072,486.214038 L261.850436,272.538707 L141.751432,476.094432 C142.220628,476.372195 142.6917,476.648082 143.162772,476.922092 L132.091638,495.88697 C133.970296,496.98301 135.860215,498.056529 137.767025,499.107527 C137.782039,499.115034 137.79893,499.124418 137.813945,499.133802 C137.917168,499.190105 138.016637,499.244532 138.117983,499.300835 C138.146135,499.31585 138.174287,499.330864 138.202438,499.347755 C138.305661,499.404058 138.397624,499.452855 138.500847,499.509158 C138.506477,499.512912 138.513984,499.516665 138.521491,499.520419 C138.696032,499.618011 138.881833,499.717481 139.058251,499.815074 C139.122061,499.848856 139.187749,499.884514 139.251559,499.920173 C139.317247,499.955832 139.388564,499.993368 139.454252,500.029027 C139.527446,500.070316 139.600641,500.109728 139.673835,500.149141 C139.733892,500.181046 139.795826,500.214828 139.855883,500.246733 C139.955352,500.299283 140.054822,500.35371 140.154291,500.408136 C140.191827,500.426904 140.225609,500.445672 140.261268,500.46444 C140.40015,500.539511 140.537155,500.612706 140.676036,500.687777 C140.711695,500.706545 140.736093,500.719682 140.773629,500.740327 C140.882482,500.798507 140.993213,500.856687 141.102066,500.914867 C141.137725,500.933635 141.179014,500.95428 141.214673,500.974925 C141.344171,501.044365 141.473669,501.11193 141.603167,501.18137 C141.610674,501.185124 141.620058,501.188878 141.627565,501.194508 C143.309161,502.084102 145.003895,502.958683 146.706136,503.814495 L263.87736,270.686323 L170.432408,490.570048 C170.852807,490.748342 171.275083,490.926636 171.697358,491.103054 L163.182401,511.402323 C163.432013,511.505546 163.675994,511.606892 163.925606,511.711992 C163.94062,511.717622 163.953758,511.723252 163.968772,511.728883 C166.322256,512.708563 168.694508,513.654461 171.081774,514.566576 C171.106172,514.57596 171.132447,514.585344 171.156845,514.594728 C171.258192,514.63414 171.376429,514.679183 171.479652,514.716719 C171.507803,514.72798 171.537832,514.73924 171.56786,514.750501 C171.742401,514.818065 171.920695,514.885629 172.095236,514.951317 C172.15717,514.973838 172.217227,514.996359 172.277284,515.020757 C172.350478,515.047032 172.423673,515.073307 172.493114,515.101459 C172.571939,515.129611 172.650763,515.159639 172.729588,515.189668 C172.791522,515.212189 172.855333,515.236587 172.919143,515.260986 C173.02612,515.300398 173.133096,515.33981 173.240073,515.379223 C173.271978,515.39236 173.313267,515.407374 173.345173,515.418635 C173.662349,515.536872 173.977648,515.653233 174.294824,515.769593 L174.300454,515.77147 C175.764344,516.30823 177.235741,516.833728 178.710891,517.34609 L265.086007,268.597466 L265.269932,268.071967 L248.530918,329.641662 L201.010809,501.248935 C201.279189,501.322129 201.545692,501.395324 201.814072,501.468518 L196.041092,522.704301 C196.131177,522.728699 196.230647,522.756851 196.320732,522.781249 C196.33387,522.785003 196.347007,522.788756 196.360144,522.79251 C196.467121,522.820662 196.583482,522.852567 196.690458,522.880719 C196.741131,522.893856 196.791804,522.90887 196.842477,522.922008 C196.93444,522.946406 197.015141,522.96705 197.105227,522.991449 C197.249739,523.030861 197.394251,523.068397 197.538763,523.107809 L197.548147,523.109686 C197.707674,523.152852 197.8672,523.194141 198.028603,523.237307 C198.03611,523.239184 198.056755,523.244814 198.064262,523.246691 C201.226639,524.078105 204.411537,524.855093 207.61708,525.5739 C207.633971,525.577654 207.647109,525.57953 207.662123,525.583284 C207.793498,525.613312 207.922996,525.641464 208.052493,525.671493 C208.120058,525.68463 208.170731,525.695891 208.238295,525.710905 C208.318996,525.729673 208.397821,525.746564 208.478523,525.765332 C208.570485,525.785976 208.64368,525.800991 208.737519,525.821635 C208.756287,525.825389 208.776931,525.831019 208.797576,525.834773 C209.933029,526.084385 211.072235,526.326489 212.213318,526.55921 L242.273728,380.166497 L264.562385,274.139602 L246.393263,408.811814 L232.568891,507.795149 C232.722787,507.81767 232.876683,507.838315 233.028702,507.858959 L230.095293,529.59772 C233.252039,530.023749 236.436937,530.395352 239.627466,530.708774 C239.63685,530.710651 239.644357,530.710651 239.653741,530.712528 C239.777608,530.723789 239.923997,530.738803 240.045988,530.750064 C240.064756,530.75194 240.083524,530.753817 240.100415,530.755694 C240.224282,530.766955 240.357534,530.780092 240.479525,530.793229 C240.485155,530.793229 240.490785,530.793229 240.494539,530.793229 C240.687847,530.811997 240.88491,530.830765 241.076341,530.847656 C241.177687,530.85704 241.28091,530.866424 241.382257,530.875808 C241.434807,530.881438 241.479849,530.885192 241.534276,530.890822 C241.66002,530.902083 241.785765,530.913343 241.909632,530.924604 C241.947168,530.928358 241.956552,530.928358 241.990334,530.932111 C243.536802,531.069116 245.085147,531.194861 246.639122,531.305591 L256.976434,387.587292 L265.95308,270.346626 L265.896777,282.907925 L263.82481,510.116727 C264.170138,510.120481 264.515466,510.122358 264.860794,510.124234 L264.761324,532 C264.842026,532 264.917097,532 264.997799,532 C265.223012,532 265.448226,532 265.675317,532 C265.782293,532 265.893023,532 266,532 C266.152019,532 266.305915,532 266.457935,532 C266.510485,532 266.561158,532 266.615584,532 C266.715054,532 266.814523,532 266.915869,532 C266.97968,532 267.039737,532 267.101671,532 C267.19551,532 267.285595,532 267.379434,532 C267.441368,532 267.499548,532 267.561482,532 C267.655321,532 267.751037,531.99437 267.842999,531.99437 C267.897426,531.99437 267.974374,531.992493 268.026924,531.992493 C268.12264,531.992493 268.218356,531.990616 268.312195,531.990616 C268.366622,531.990616 268.428555,531.988739 268.482982,531.988739 C268.588082,531.988739 268.693181,531.986863 268.798281,531.986863 C268.843324,531.984986 268.895874,531.984986 268.940917,531.984986 C269.077922,531.983109 269.214927,531.981232 269.351932,531.979355 C269.359439,531.979355 269.38196,531.979355 269.391344,531.979355 C269.868047,531.973725 270.344749,531.966218 270.821452,531.956834 C270.830836,531.956834 270.849603,531.956834 270.858987,531.956834 C271.005376,531.954957 271.153642,531.951204 271.300031,531.949327 C271.316922,531.94745 271.320676,531.94745 271.339443,531.94745 C271.483956,531.945573 271.628468,531.94182 271.774857,531.938066 C271.793625,531.938066 271.799255,531.938066 271.818023,531.938066 C275.021689,531.868625 278.214094,531.742881 281.391485,531.56271 L280.145302,509.709466 C280.353625,509.696328 280.561948,509.683191 280.772147,509.670053 L272.356659,373.186747 L266.692532,273.910634 L284.276099,408.967587 L299.451754,529.916773 C299.521195,529.909265 299.588759,529.899881 299.6582,529.890498 C299.746409,529.879237 299.836494,529.867976 299.924703,529.856715 C299.975376,529.851085 300.024172,529.845455 300.074845,529.837948 C300.19496,529.822933 300.313197,529.807919 300.431434,529.792905 C300.467093,529.787275 300.506505,529.783521 300.540287,529.777891 C305.701437,529.10788 310.815666,528.29148 315.879223,527.330568 L311.784085,505.745703 C311.964256,505.710044 312.142551,505.676262 312.322722,505.640603 L289.837002,390.053382 L267.477027,272.195256 L285.01555,337.910761 L333.573519,523.342407 C333.978904,523.23543 334.374905,523.13033 334.78029,523.023354 C334.836593,523.00834 334.892896,522.991449 334.951077,522.976434 C335.033655,522.95579 335.091835,522.938899 335.174414,522.916377 C335.292651,522.884472 335.410888,522.854444 335.527249,522.822538 C335.553524,522.815031 335.577922,522.807524 335.60232,522.801894 C338.941114,521.899162 342.25551,520.932619 345.541755,519.904143 C345.581167,519.891006 345.628087,519.877868 345.667499,519.864731 C345.766969,519.832825 345.868315,519.80092 345.965907,519.770892 C346.039102,519.74837 346.123557,519.720218 346.196752,519.697697 C346.249301,519.680806 346.305605,519.663915 346.358155,519.647024 C347.412906,519.312957 348.467657,518.971383 349.516778,518.626055 L342.608345,497.720585 C342.946166,497.607978 343.283987,497.495372 343.619931,497.382765 L271.22496,281.676756 L266.713177,268.02317 L266.966542,268.985959 L266.741329,268.319702 L266.654997,267.85426 L266.675641,267.90681 L266.713177,268.02317 L266.698163,267.961237 L366.533556,512.346344 C368.042489,511.730759 369.5289,511.107668 371.022818,510.463932 C371.028448,510.462055 371.034078,510.460178 371.039709,510.456425 C371.396297,510.304405 371.741625,510.154263 372.096337,509.99849 C372.116981,509.990983 372.137626,509.981599 372.158271,509.972215 C372.25211,509.930926 372.353456,509.88776 372.445418,509.846471 C372.497968,509.823949 372.548641,509.801428 372.599314,509.778907 C372.683769,509.743248 372.771978,509.703835 372.856433,509.6663 C372.912737,509.641902 372.970917,509.617503 373.02722,509.591229 C373.158595,509.534925 373.276832,509.482375 373.408207,509.424195 C373.488909,509.388536 373.571487,509.352877 373.652189,509.315342 C373.72163,509.285313 373.77981,509.259038 373.849251,509.22901 C373.929952,509.193351 374.010654,509.157692 374.091356,509.120156 C374.151413,509.093881 374.2171,509.06573 374.277157,509.037578 C374.37475,508.994412 374.468589,508.953123 374.566181,508.909957 C374.603717,508.891189 374.65439,508.868668 374.693802,508.851777 C374.838315,508.787966 374.982827,508.722279 375.125462,508.656591 C375.14986,508.647207 375.161121,508.641577 375.183642,508.632193 C375.31314,508.574013 375.442638,508.513956 375.572136,508.455776 C375.602165,508.442638 375.6397,508.425747 375.669729,508.410733 C375.787966,508.358183 375.906203,508.303756 376.02444,508.251207 C376.056346,508.236192 376.088251,508.223055 376.11828,508.208041 C376.416688,508.071035 376.716973,507.935907 377.015381,507.797025 C377.030395,507.791395 377.049163,507.782011 377.064177,507.774504 C377.195552,507.714447 377.328804,507.652513 377.460178,507.592456 C377.4827,507.581195 377.514605,507.568058 377.537126,507.556797 C377.668501,507.494864 377.801753,507.434807 377.933127,507.372873 C377.955649,507.363489 377.963156,507.359735 377.985677,507.348475 C378.282209,507.21147 378.576863,507.074464 378.871518,506.935583 C378.909054,506.916815 378.935329,506.905554 378.972864,506.886786 C379.085471,506.834236 379.198078,506.781687 379.310685,506.72726 C379.350097,506.710369 379.387633,506.691601 379.425169,506.67471 C379.554667,506.612776 379.682288,506.552719 379.811786,506.492662 C379.824923,506.485155 379.843691,506.477648 379.858705,506.470141 C379.99571,506.404453 380.132715,506.338766 380.271597,506.273079 C380.324147,506.248681 380.389834,506.216775 380.442384,506.192377 C380.521209,506.154842 380.600034,506.115429 380.678859,506.077893 C380.7483,506.045988 380.825248,506.008453 380.894689,505.976547 C380.954746,505.946519 381.016679,505.91649 381.078613,505.886462 C381.163068,505.847049 381.23814,505.809514 381.320718,505.770101 C381.324472,505.770101 381.326348,505.768225 381.328225,505.768225 C381.463353,505.70066 381.585344,505.64248 381.722349,505.576793 L372.14138,485.778624 C372.599314,485.557164 373.057249,485.335704 373.513307,485.112367 L269.233695,272.155843 L397.768831,497.121892 C398.369401,496.778441 398.968095,496.433113 399.564911,496.085909 C399.572418,496.082155 399.578049,496.078401 399.585556,496.074648 C399.713177,496.001453 399.838921,495.926382 399.968419,495.851311 C399.996571,495.83442 400.03223,495.813775 400.062258,495.796884 C400.163605,495.736827 400.264951,495.678647 400.366297,495.61859 C400.482657,495.551026 400.584004,495.490969 400.700364,495.421528 L400.837369,495.340826 C400.938715,495.280769 401.030678,495.228219 401.130147,495.168162 C401.154545,495.155025 401.178943,495.140011 401.201465,495.126873 C404.146135,493.38522 407.042009,491.596647 409.911608,489.748017 C409.982926,489.701098 410.054243,489.656055 410.125561,489.609136 C410.174357,489.57723 410.223154,489.545325 410.27195,489.51342 C410.393941,489.436472 410.514055,489.357647 410.634169,489.278822 L410.637922,489.276945 C411.073336,488.993551 411.508749,488.710157 411.940409,488.424886 L399.891471,470.098115 C400.343776,469.801583 400.797957,469.503175 401.246507,469.204767 L270.076369,271.696032 L426.748215,477.952445 C426.887097,477.847346 427.024102,477.742246 427.162984,477.637146 C427.283098,477.545184 427.403212,477.453222 427.525202,477.361259 C427.557108,477.334984 427.58526,477.31434 427.619042,477.288065 C427.709127,477.218624 427.799213,477.149183 427.889298,477.079742 C427.97563,477.014055 428.075099,476.938983 428.159555,476.873296 C428.219612,476.826377 428.277792,476.781334 428.335972,476.736291 C428.422304,476.670604 428.508636,476.60304 428.594968,476.537352 C428.621243,476.516708 428.649395,476.494186 428.677546,476.473542 C428.769509,476.400347 428.857717,476.332783 428.94968,476.261465 C428.962817,476.252081 428.977831,476.240821 428.990969,476.22956 C430.220261,475.276155 431.438292,474.313366 432.650693,473.33744 C432.691982,473.303658 432.735148,473.267999 432.778314,473.234217 C432.842125,473.181667 432.920949,473.117856 432.986637,473.067183 C433.044817,473.020264 433.102997,472.973344 433.159301,472.926425 C433.219358,472.879505 433.270031,472.836339 433.328211,472.789419 C433.448325,472.693704 433.566562,472.596111 433.684799,472.500395 C433.703567,472.485381 433.711074,472.477874 433.731719,472.462859 C433.849956,472.367144 433.966317,472.271428 434.084554,472.175712 L434.116459,472.149437 C435.989487,470.61986 437.839994,469.065885 439.671733,467.485635 L425.376288,450.919284 C425.719739,450.622753 426.06319,450.328098 426.402887,450.031567 L267.340022,267.370051 L452.995005,455.179578 C456.938123,451.28338 460.757373,447.263314 464.452756,443.128764 L448.13414,428.553679 C448.342463,428.320958 448.548909,428.088237 448.755355,427.853639 L296.961265,293.530508 L268.972822,268.531778 L330.236601,315.742218 L476.070034,429.199292 C477.274927,427.64907 478.453546,426.098849 479.626535,424.520475 C479.634042,424.509215 479.645302,424.496077 479.654686,424.48294 C479.778554,424.315906 479.896791,424.15638 480.020659,423.989346 C480.052564,423.94618 480.084469,423.903014 480.116375,423.859848 C480.155787,423.805421 480.191446,423.758502 480.230858,423.704075 C480.290915,423.623374 480.350972,423.540795 480.411029,423.460094 C480.441058,423.418805 480.469209,423.379392 480.499238,423.33998 C480.581816,423.227373 480.664395,423.112889 480.74885,423.000282 C480.758234,422.987145 480.758234,422.985268 480.769495,422.97213 C482.499887,420.605509 484.194621,418.210736 485.849942,415.785934 C485.853696,415.778427 485.861203,415.769043 485.866833,415.761536 L467.755891,403.402929 C467.877882,403.222758 467.999873,403.044464 468.121864,402.864293 L351.802698,324.268436 L271.675387,269.582776 L358.859397,320.205204 L495.575424,400.441368 C497.148167,397.759447 498.675867,395.047498 500.158525,392.30552 C500.162278,392.298013 500.164155,392.29426 500.167908,392.286752 C500.24298,392.149747 500.316174,392.012742 500.391245,391.875737 C500.402506,391.853216 500.410013,391.840078 500.421274,391.817557 C500.498222,391.676798 500.573293,391.534163 500.650241,391.393404 C500.653995,391.385897 500.652118,391.387774 500.655872,391.380267 C500.727189,391.248892 500.798507,391.115641 500.867948,390.982389 C500.899853,390.924209 500.941142,390.847261 500.973048,390.789081 C501.008707,390.721517 501.042489,390.655829 501.078147,390.588265 C501.11756,390.513194 501.164479,390.426862 501.203892,390.353667 C501.226413,390.308625 501.250811,390.263582 501.27521,390.218539 C502.042813,388.76591 502.795403,387.313281 503.536731,385.843761 L483.913104,375.924971 C484.021957,375.709141 484.13081,375.495188 484.237787,375.279358 L345.823272,306.116205 L269.98253,267.777312 L310.414035,284.627057 L511.160218,369.386264 C511.190246,369.316823 511.222152,369.239875 511.25218,369.170434 C511.254057,369.166681 511.254057,369.164804 511.255934,369.16105 C511.466133,368.663703 511.668826,368.177617 511.875272,367.678393 C511.877148,367.674639 511.879025,367.670886 511.880902,367.667132 C511.931575,367.541388 511.978495,367.426904 512.031045,367.30116 C512.032921,367.297406 512.034798,367.291776 512.036675,367.286146 C512.239367,366.794429 512.438306,366.308343 512.639122,365.814749 C512.642875,365.801611 512.648506,365.788474 512.654136,365.777213 C512.851198,365.291127 513.044507,364.806917 513.237815,364.320831 C513.245322,364.305817 513.250953,364.288926 513.256583,364.273911 C513.299749,364.163181 513.348545,364.043067 513.391711,363.932337 C513.399218,363.915446 513.406725,363.896678 513.414232,363.879787 C513.603787,363.401208 513.791466,362.920752 513.979144,362.440296 C513.988528,362.415898 513.997912,362.391499 514.007295,362.367101 C514.046708,362.263878 514.095504,362.138134 514.134917,362.036788 C514.142424,362.019897 514.148054,362.004882 514.153684,361.987991 C514.290689,361.63328 514.423941,361.289829 514.559069,360.935117 C514.568453,360.910719 514.577837,360.888197 514.585344,360.865676 C514.624757,360.762453 514.667923,360.649846 514.707335,360.5485 C514.718596,360.514718 514.731733,360.480936 514.744871,360.447154 C514.919411,359.987342 515.101459,359.505009 515.272246,359.045198 C515.285384,359.009539 515.298521,358.975757 515.311659,358.941975 C515.349194,358.838752 515.390483,358.729899 515.429896,358.626676 C515.43928,358.600401 515.448664,358.576003 515.456171,358.549728 C515.580038,358.217537 515.703906,357.88347 515.825897,357.549403 C515.840911,357.508114 515.857802,357.464948 515.872816,357.423659 C515.904722,357.337327 515.946011,357.22472 515.976039,357.138388 C515.99293,357.093345 516.007945,357.050179 516.024836,357.007013 C516.058618,356.911297 516.096153,356.808074 516.131812,356.712359 C516.143073,356.678576 516.15621,356.644794 516.167471,356.611012 C516.236912,356.419581 516.31386,356.209381 516.383301,356.017949 C516.394562,355.986044 516.405822,355.952262 516.41896,355.91848 C516.452742,355.822764 516.48277,355.740186 516.516552,355.64447 C516.53532,355.590043 516.554088,355.537493 516.574733,355.483067 C516.602884,355.404242 516.638543,355.304772 516.666695,355.224071 C516.687339,355.164014 516.709861,355.10208 516.730505,355.042023 C516.762411,354.953814 516.790562,354.874989 516.822468,354.786781 C516.850619,354.706079 516.878771,354.625377 516.906923,354.546553 C516.948212,354.426439 516.993255,354.300694 517.034544,354.18058 C517.060819,354.109263 517.087094,354.036068 517.111492,353.96475 C517.122753,353.932845 517.132137,353.902817 517.143397,353.870911 L496.361796,346.60026 C496.489417,346.234287 496.615161,345.868315 496.742782,345.502342 L268.518641,266.852059 L522.542898,336.553848 C522.839429,335.472822 523.13033,334.380535 523.413724,333.293879 C523.417478,333.282618 523.421232,333.26948 523.423108,333.25822 C523.45689,333.134352 523.488796,333.004854 523.522578,332.880987 C523.522578,332.875356 523.524455,332.871603 523.526331,332.865972 C523.627678,332.468095 523.727147,332.083355 523.828493,331.685477 C523.828493,331.6836 523.828493,331.681723 523.83037,331.679846 C523.860398,331.554102 523.892304,331.437742 523.922332,331.311997 C523.927963,331.293229 523.933593,331.272585 523.937347,331.253817 C523.969252,331.129949 523.997404,331.017343 524.029309,330.891598 C524.031186,330.880338 524.034939,330.869077 524.036816,330.857816 C524.134409,330.467446 524.232001,330.078952 524.327717,329.686704 C524.327717,329.684828 524.327717,329.682951 524.327717,329.681074 C524.359622,329.557207 524.387774,329.440846 524.417803,329.315102 C524.423433,329.29258 524.429063,329.271936 524.434694,329.249414 C524.560438,328.731423 524.684306,328.219061 524.806296,327.70107 C524.81005,327.689809 524.811927,327.680425 524.813804,327.671041 C524.843832,327.545297 524.871984,327.425183 524.902012,327.299438 C524.905766,327.284424 524.909519,327.267533 524.913273,327.250642 C525.005235,326.865902 525.095321,326.477408 525.185406,326.090791 C525.185406,326.085161 525.187283,326.077654 525.18916,326.070146 C525.211681,325.970677 525.234203,325.874961 525.256724,325.775492 C525.269861,325.721065 525.281122,325.668515 525.29426,325.615965 C525.314904,325.524003 525.333672,325.439548 525.354317,325.345709 C525.371208,325.276268 525.386222,325.208704 525.403113,325.137386 C525.420004,325.062315 525.438772,324.979736 525.455663,324.904665 C525.483815,324.780798 525.511966,324.65693 525.538241,324.533062 C525.543872,324.506787 525.549502,324.482389 525.557009,324.457991 C525.590791,324.298465 525.62645,324.138938 525.662109,323.981289 C525.667739,323.955014 525.671493,323.943753 525.677123,323.917478 C525.710905,323.765459 525.744687,323.611563 525.778469,323.459543 L525.782223,323.442652 C526.00556,322.427314 526.223266,321.410098 526.435343,320.391006 L504.914289,315.918635 C505.030649,315.366861 505.143256,314.813211 505.255863,314.261437 L275.492761,267.640307 L529.515141,302.516538 C529.785398,300.536534 530.03501,298.550899 530.263977,296.557757 C530.265854,296.55025 530.265854,296.544619 530.265854,296.537112 C530.282745,296.39823 530.295882,296.272486 530.310897,296.133604 C530.312773,296.127974 530.312773,296.122344 530.31465,296.116713 C530.69376,292.74789 531.009059,289.382821 531.260548,285.976463 L509.424195,284.3568 C509.467361,283.797519 509.506773,283.241992 509.546186,282.684588 L270.952826,266.073194 L531.992493,267.856137 C532,267.238676 532,266.619338 532,266 L532,265.551449 L532,265.397553 C532,265.301837 532,265.204245 532,265.108529 C532,265.037211 532,264.975277 532,264.90396 C532,264.823258 532,264.742556 532,264.659978 C532,264.58866 532,264.522973 532,264.449778 C531.99437,264.37283 531.99437,264.295882 531.99437,264.218934 C531.992493,264.138233 531.992493,264.061285 531.992493,263.980583 C531.992493,263.913019 531.990616,263.845455 531.990616,263.777891 C531.990616,263.697189 531.988739,263.612734 531.988739,263.532032 C531.988739,263.468222 531.988739,263.402534 531.986863,263.336847 C531.986863,263.248638 531.984986,263.169813 531.984986,263.079728 C531.983109,263.017794 531.983109,262.95586 531.983109,262.893927 C531.981232,262.813225 531.981232,262.719386 531.979355,262.638684 C531.979355,262.578627 531.977479,262.516693 531.977479,262.456636 C531.975602,262.368428 531.973725,262.268958 531.973725,262.18075 C531.971848,262.130076 531.971848,262.083157 531.971848,262.034361 C531.969971,261.934891 531.968095,261.835422 531.966218,261.735952 C531.966218,261.694663 531.964341,261.653374 531.964341,261.612085 C531.962464,261.495724 531.960588,261.401885 531.958711,261.287402 C531.958711,261.263003 531.958711,261.238605 531.956834,261.214207 C531.954957,261.09034 531.95308,260.972102 531.951204,260.848235 L531.951204,260.842604 C531.939943,260.281447 531.928682,259.718412 531.913668,259.157255 C531.913668,259.147871 531.913668,259.138487 531.911791,259.13098 C531.909914,258.995851 531.906161,258.875737 531.902407,258.742486 C531.902407,258.727472 531.902407,258.712457 531.902407,258.697443 C531.898654,258.571699 531.8949,258.445954 531.891147,258.32021 C531.891147,258.301442 531.891147,258.280798 531.88927,258.260153 C531.885516,258.143793 531.881763,258.014295 531.878009,257.897934 C531.878009,257.871659 531.878009,257.847261 531.876132,257.820986 C531.872379,257.704626 531.870502,257.595772 531.866749,257.479412 C531.864872,257.443753 531.864872,257.408094 531.862995,257.374312 C531.859241,257.267336 531.855488,257.152852 531.851734,257.045875 C531.851734,257.010216 531.849857,256.972681 531.847981,256.937022 C531.844227,256.830045 531.840474,256.721192 531.83672,256.614216 C531.834843,256.572926 531.834843,256.531637 531.832966,256.490348 C531.829213,256.383371 531.827336,256.287656 531.821706,256.180679 C531.819829,256.135636 531.819829,256.090594 531.817952,256.045551 C531.814199,255.947958 531.810445,255.848489 531.806692,255.749019 C531.804815,255.696469 531.801061,255.642043 531.799184,255.589493 C531.795431,255.499407 531.793554,255.398061 531.7898,255.307976 C531.787924,255.253549 531.78417,255.199122 531.782293,255.144696 C531.77854,255.056487 531.774786,254.964525 531.771033,254.876316 C531.72036,253.658285 531.664056,252.44213 531.596492,251.227853 L509.741371,252.423362 C509.73011,252.209409 509.716973,251.995456 509.705712,251.781503 L370.334039,260.054356 L273.833686,265.337496 L408.956326,248.063599 L529.993721,233.161954 C529.66153,230.472526 529.289927,227.786851 528.878912,225.121821 C528.875159,225.101177 528.871405,225.080532 528.867652,225.058011 C528.852637,224.947281 528.83387,224.834674 528.816979,224.723944 L528.794457,224.585062 C528.779443,224.481839 528.764429,224.391753 528.747538,224.28853 C528.738154,224.220966 528.726893,224.151525 528.715632,224.083961 C528.704372,224.005136 528.691234,223.920681 528.678097,223.843733 C528.655575,223.695468 528.6293,223.545325 528.606779,223.397059 C528.599272,223.353893 528.591765,223.310727 528.586134,223.267561 C528.56549,223.147447 528.546722,223.025456 528.526077,222.905342 C528.520447,222.862177 528.514817,222.828394 528.50731,222.785228 C528.482911,222.642593 528.46039,222.498081 528.435992,222.353569 C528.434115,222.346062 528.434115,222.340431 528.432238,222.332924 C528.122569,220.458019 527.794133,218.588745 527.445051,216.728854 L505.850803,220.773319 C505.817021,220.595024 505.783239,220.414853 505.749457,220.238436 L391.059337,242.271851 L272.294725,264.517343 L339.95833,246.627861 L523.49818,199.025174 C523.455014,198.861894 523.411848,198.700491 523.370559,198.537211 C523.368682,198.529704 523.363051,198.510936 523.361175,198.501552 C523.318009,198.342026 523.276719,198.180623 523.233553,198.021096 C523.231677,198.011712 523.233553,198.021096 523.231677,198.013589 C523.147222,197.687029 523.06089,197.362346 522.972681,197.037663 C522.96705,197.013264 522.957667,196.979482 522.952036,196.955084 C522.916377,196.819956 522.878842,196.686704 522.843183,196.551576 C522.837553,196.527178 522.828169,196.495273 522.820662,196.470875 C522.783126,196.328239 522.743713,196.185604 522.704301,196.042968 C522.700548,196.026077 522.694917,196.005433 522.689287,195.988542 C522.646121,195.829015 522.602955,195.669489 522.559789,195.509962 C522.556035,195.493071 522.550405,195.47618 522.544775,195.459289 C522.509116,195.322284 522.469703,195.185279 522.432168,195.048274 C522.420907,195.006985 522.409646,194.969449 522.400262,194.92816 L522.297039,194.562188 C522.289532,194.530283 522.278272,194.488993 522.268888,194.457088 C522.180679,194.139912 522.09247,193.824613 522.002385,193.509313 C521.996754,193.492422 521.991124,193.471778 521.987371,193.454887 C521.947958,193.317882 521.908546,193.179 521.869133,193.040118 C521.859749,193.006336 521.850365,192.974431 521.840982,192.940649 C521.803446,192.807397 521.764034,192.672269 521.726498,192.539017 C521.718991,192.512742 521.715237,192.499605 521.70773,192.47333 C521.615768,192.154277 521.523805,191.835224 521.429966,191.514295 C521.426213,191.497404 521.416829,191.467375 521.411199,191.450484 C521.373663,191.317233 521.334251,191.182104 521.294838,191.048853 C521.283577,191.015071 521.27607,190.983165 521.266686,190.95126 C521.22352,190.806748 521.182231,190.664113 521.139065,190.5196 C521.137188,190.512093 521.131558,190.498956 521.129681,190.489572 C521.035842,190.168642 520.940126,189.849589 520.844411,189.52866 C520.836903,189.504262 520.829396,189.48174 520.821889,189.457342 C520.782477,189.325967 520.743064,189.192716 520.703652,189.061341 C520.692391,189.029436 520.684884,188.997531 520.673623,188.965625 C520.579784,188.652203 520.485945,188.340657 520.388353,188.027234 C520.380846,188.002836 520.375215,187.978438 520.367708,187.95404 C520.328296,187.828296 520.288883,187.702551 520.251348,187.576807 C520.234457,187.528011 520.221319,187.482968 520.206305,187.434172 L520.110589,187.122626 C520.095575,187.073829 520.076807,187.013772 520.061793,186.964976 C520.026134,186.854246 519.992352,186.745393 519.95857,186.634663 C519.936048,186.561468 519.913527,186.49015 519.891006,186.415079 C519.857223,186.309979 519.823441,186.203003 519.789659,186.097903 C519.761508,186.007818 519.737109,185.927116 519.708958,185.83703 C519.692067,185.784481 519.673299,185.730054 519.658285,185.675627 C519.626379,185.578035 519.594474,185.480442 519.564446,185.382849 C519.553185,185.349067 519.541924,185.313408 519.530664,185.27775 C519.297943,184.547682 519.055838,183.798846 518.817487,183.070654 L497.897003,189.928414 C497.786273,189.594347 497.675543,189.26028 497.564812,188.926213 L283.532893,260.202622 L268.026924,265.284946 L269.121088,265.001552 L268.370375,265.251164 L267.84863,265.348757 L267.921824,265.320605 L268.026924,265.284946 L267.970621,265.29996 L512.579065,166.038862 C511.207137,162.662532 509.7714,159.319984 508.268098,156.013095 L508.256837,155.992451 C508.193026,155.849815 508.127339,155.705303 508.061652,155.562668 C508.056021,155.547653 508.046637,155.528886 508.03913,155.513871 C507.904002,155.21734 507.768874,154.920808 507.631869,154.626154 C507.614978,154.586741 507.598087,154.552959 507.581195,154.515423 C507.528646,154.404693 507.477973,154.293963 507.427299,154.183233 C507.406655,154.13819 507.393517,154.108162 507.370996,154.063119 C507.312816,153.939252 507.254636,153.815384 507.198332,153.68964 C507.190825,153.674625 507.179564,153.650227 507.172057,153.635213 C507.102616,153.48507 507.031299,153.334928 506.961858,153.184785 C506.958104,153.177278 506.94872,153.15851 506.944967,153.151003 C506.881156,153.015875 506.817345,152.87887 506.753535,152.743742 C506.740397,152.713713 506.731013,152.693069 506.715999,152.66304 C506.426975,152.053086 506.13795,151.443132 505.845173,150.835055 L486.022606,160.369105 C485.804899,159.91117 485.583439,159.455112 485.361979,159.000931 L272.120185,262.805718 L497.425931,134.767928 C496.571995,133.262749 495.703045,131.766955 494.819081,130.280544 C494.815328,130.273036 494.811574,130.269283 494.80782,130.261776 C493.65923,128.328691 492.486242,126.412497 491.288855,124.511317 L491.285101,124.50381 C491.196893,124.363051 491.108684,124.22417 491.020475,124.083411 C491.014845,124.075904 491.011091,124.068397 491.005461,124.06089 C490.83092,123.785003 490.65638,123.509116 490.481839,123.235106 C490.453687,123.19194 490.427412,123.150651 490.401137,123.107485 C490.346711,123.023029 490.292284,122.936697 490.235981,122.852242 C490.196568,122.788432 490.168416,122.743389 490.127127,122.681455 C490.089592,122.621398 490.052056,122.563218 490.01452,122.505038 C489.599752,121.857548 489.184983,121.217566 488.764584,120.575706 L470.407784,132.583355 C470.111252,132.127297 469.814721,131.674992 469.516312,131.222688 L271.750459,261.904863 L478.324048,105.743502 C477.597734,104.78259 476.863912,103.825431 476.12446,102.873903 C476.115076,102.860765 476.105692,102.849505 476.096309,102.836367 C475.994962,102.706869 475.893616,102.575495 475.790393,102.445997 L475.790393,102.44412 C475.685293,102.308992 475.578317,102.173863 475.473217,102.038735 L475.46008,102.023721 C475.366241,101.90173 475.268648,101.779739 475.172932,101.657748 C475.157918,101.637104 475.137273,101.610829 475.120382,101.590184 C475.030297,101.477577 474.942088,101.363094 474.852002,101.24861 C474.840742,101.235473 474.827604,101.218582 474.816344,101.205444 C474.713121,101.074069 474.609898,100.944571 474.506675,100.813197 C474.501044,100.807566 474.497291,100.801936 474.493537,100.796306 C474.395944,100.674315 474.300229,100.554201 474.204513,100.43221 C474.189498,100.413442 474.161347,100.37966 474.146333,100.360892 C474.060001,100.253916 473.975545,100.146939 473.889213,100.039963 C473.874199,100.021195 473.853555,99.9930432 473.83854,99.9742754 C473.632094,99.7152795 473.423772,99.4581605 473.217326,99.1991646 C473.206065,99.1879039 473.194804,99.1728897 473.183544,99.1597522 C473.089705,99.041515 472.992112,98.9232777 472.896396,98.8050405 C472.887012,98.791903 472.877628,98.7806423 472.866368,98.7675049 C471.235444,96.7518415 469.576369,94.7624531 467.889143,92.7974628 L451.287133,107.053495 C450.990602,106.708168 450.695947,106.36284 450.397539,106.021265 L267.452629,264.58866 L455.613115,79.4441622 C455.599977,79.4329015 455.594347,79.4272712 455.583086,79.4141337 C452.077258,75.8538792 448.473838,72.3912172 444.774702,69.0317783 C444.742796,69.0036266 444.712768,68.9735981 444.680862,68.9473231 C444.611422,68.8835125 444.541981,68.8215788 444.474417,68.7577682 C444.406852,68.6977112 444.331781,68.630147 444.264217,68.57009 C444.260463,68.5663365 444.25671,68.5625829 444.252956,68.5588293 C444.029619,68.3580137 443.810036,68.1590749 443.586699,67.960136 L428.975955,84.2430926 C428.741357,84.0328931 428.506759,83.8245703 428.272162,83.6162476 L292.618392,236.20234 L268.484859,263.098496 L315.299297,202.636102 L429.685378,56.3109531 C425.68408,53.184235 421.588943,50.1663703 417.411227,47.2686196 C417.371814,47.2404679 417.332402,47.214193 417.29299,47.1860413 C417.217918,47.1334914 417.131586,47.0753112 417.056515,47.0227613 L416.709311,46.78441 C416.696173,46.7750261 416.679282,46.7637654 416.666145,46.7543815 C416.542277,46.6680496 416.416533,46.5835944 416.292665,46.4972624 C416.287035,46.4935089 416.277651,46.4878785 416.270144,46.4822482 L403.870248,64.5631615 C403.691954,64.4392939 403.511783,64.3173031 403.331612,64.1953123 L324.292834,180.585796 L269.595913,260.333997 L320.588068,172.982954 L400.972497,36.7379985 C396.211103,33.9303333 391.338978,31.2559196 386.395535,28.7429092 L376.429825,48.3421387 C376.215872,48.2332854 376.003796,48.1263088 375.789843,48.0193323 L306.774956,185.332176 L267.824232,261.942398 L285.362755,220.129583 L369.954929,21.0800102 C364.866974,18.9179578 359.698318,16.9098016 354.45459,15.0611718 L347.133266,35.8277594 C346.771047,35.6982615 346.408828,35.5725171 346.044732,35.444896 L266.81077,263.629625 L337.148788,9.62225891 C334.326108,8.84151779 331.484661,8.10394265 328.626323,7.41516383 C328.616939,7.41141027 328.616939,7.41141027 328.607555,7.40953349 C328.277242,7.33070866 327.945051,7.25000706 327.612861,7.17118223 C327.603477,7.16930545 327.584709,7.16555189 327.577202,7.16367511 C327.436443,7.12989304 327.295685,7.09611097 327.153049,7.06420568 C327.11176,7.05482178 327.072348,7.04356109 327.029182,7.03417718 C326.909068,7.00602546 326.787077,6.97787373 326.665086,6.94972201 C326.62192,6.93846132 326.595645,6.93283098 326.554356,6.92344707 C326.239057,6.85025259 325.923758,6.77705811 325.608458,6.70386363 C325.567169,6.69447972 325.539017,6.68884938 325.497728,6.67946547 C325.379491,6.65319053 325.26313,6.62503881 325.14677,6.59876386 C325.096097,6.58750318 325.039793,6.57624249 324.98912,6.56310502 C324.87276,6.53683007 324.754523,6.51055513 324.636285,6.48428019 C324.60438,6.47677306 324.564968,6.46738916 324.531186,6.45988203 C324.208379,6.38856433 323.885573,6.31536985 323.56089,6.24405215 C323.543999,6.24029859 323.527107,6.23654503 323.510216,6.23279147 C323.361951,6.20088618 323.213685,6.16898089 323.067296,6.13519883 C323.041021,6.13144526 323.035391,6.12956848 323.009116,6.12393814 C322.339105,5.97754918 321.667217,5.833037 320.995329,5.69227838 L316.472286,27.2039483 C315.922389,27.0857111 315.372492,26.9712274 314.822595,26.8586205 L267.655321,256.567296 L303.126492,2.56931392 C301.503076,2.34410013 299.875907,2.13202382 298.243107,1.93496176 L298.190557,1.92745463 C298.070443,1.91431716 297.935315,1.89742613 297.815201,1.88241188 C297.796433,1.88053509 297.777665,1.87865831 297.760774,1.87678153 C297.231521,1.81297096 296.698516,1.75103717 296.167386,1.69098016 C296.146742,1.68910338 296.126097,1.6872266 296.105453,1.68534982 C295.983462,1.67033556 295.853964,1.65719809 295.731973,1.64218384 L295.67567,1.6365535 C294.988768,1.56148223 294.307496,1.48828775 293.618717,1.41697006 C293.61684,1.41697006 293.614963,1.41697006 293.613087,1.41509327 C292.355643,1.28559535 291.101953,1.16548133 289.840756,1.05287444 C289.722519,1.04349053 289.600528,1.03222984 289.486044,1.02284593 C289.444755,1.01909237 289.405342,1.01533881 289.364053,1.01158525 C289.258954,1.00220134 289.165114,0.994694212 289.060015,0.985310304 C288.994327,0.979679959 288.92864,0.974049615 288.862953,0.96841927 C288.774744,0.960912144 288.697796,0.955281799 288.609587,0.947774673 C287.937699,0.891471227 287.265812,0.837044563 286.593924,0.786371462 L284.921711,22.6208478 C284.360554,22.575805 283.799396,22.5326391 283.238238,22.4932267 L266.097593,260.788178 L268.473598,0.0112606892 C268.098242,0.00750712613 267.732269,0.00563034459 267.356913,0 C267.323131,0 267.287472,0 267.25369,0 C267.13733,0 267.03786,0 266.9215,0 C266.857689,0 266.797632,0 266.735698,0 C266.664381,0 266.591186,0 266.519868,0 C266.471072,0 266.422276,0 266.371603,0 C266.247735,0 266.125744,0 266,0 L266,21.872012 L266,0 Z"></path>
            </g>
        </g>
    </g>
</svg>