<svg fill="#f96f08"   viewBox="0 0 275 276"  version="1.1" xmlns="http://www.w3.org/2000/svg" xmlns:xlink="http://www.w3.org/1999/xlink" >
    <title>Let the good times roll</title> 
    
    
                <path d="M233.9129,58.6785 L244.1789,50.7835 L245.6219,52.6605 L236.8229,59.4275 L240.3189,63.9745 L238.8529,65.1015 L233.9129,58.6785 Z M239.9168,66.6208 L250.7928,59.5908 L255.3828,66.6898 L253.7818,67.7248 L250.4788,62.6128 L247.4948,64.5418 L250.4978,69.1868 L248.9438,70.1908 L245.9408,65.5458 L242.8028,67.5748 L246.1068,72.6858 L244.5068,73.7208 L239.9168,66.6208 Z M246.908,78.0681 L256.656,72.8771 L254.883,69.5461 L256.564,68.6501 L261.234,77.4191 L259.552,78.3141 L257.769,74.9661 L248.02,80.1581 L246.908,78.0681 Z M253.2586,91.6072 L263.5626,87.6292 L262.2026,84.1082 L263.9806,83.4222 L267.5586,92.6902 L265.7806,93.3762 L264.4146,89.8382 L254.1126,93.8162 L253.2586,91.6072 Z M255.9471,98.7175 L268.4141,95.2135 L269.0541,97.4925 L263.8721,98.9495 L265.4431,104.5425 L270.6261,103.0855 L271.2661,105.3645 L258.8001,108.8685 L258.1591,106.5895 L263.5921,105.0635 L262.0191,99.4705 L256.5881,100.9975 L255.9471,98.7175 Z M259.2488,111.0622 L271.9888,108.7412 L273.5048,117.0582 L271.6308,117.4002 L270.5388,111.4122 L267.0448,112.0482 L268.0358,117.4912 L266.2168,117.8222 L265.2248,112.3802 L261.5478,113.0502 L262.6398,119.0392 L260.7648,119.3792 L259.2488,111.0622 Z M261.6248,131.2273 C261.5648,130.0073 261.7918,128.9283 262.3018,127.9903 C262.8118,127.0513 263.5508,126.3063 264.5188,125.7523 C265.4848,125.2003 266.6278,124.8913 267.9458,124.8283 C269.2768,124.7633 270.4628,124.9683 271.5048,125.4433 C272.5458,125.9173 273.3768,126.6243 273.9958,127.5643 C274.6158,128.5033 274.9578,129.6383 275.0208,130.9683 C275.0948,132.4843 274.7918,133.7583 274.1138,134.7903 C273.4348,135.8243 272.4618,136.5193 271.1948,136.8763 L271.0678,134.2343 C271.6618,134.0083 272.1158,133.6283 272.4298,133.0943 C272.7428,132.5603 272.8808,131.8873 272.8418,131.0743 C272.7788,129.7813 272.3208,128.8023 271.4678,128.1403 C270.6138,127.4773 269.4738,127.1803 268.0448,127.2493 C266.6148,127.3193 265.5268,127.7203 264.7778,128.4543 C264.0288,129.1873 263.6848,130.1523 263.7418,131.3473 C263.7988,132.5173 264.1578,133.3853 264.8208,133.9533 C265.4848,134.5193 266.3368,134.8393 267.3778,134.9133 L267.2198,131.6423 L268.9938,131.5563 L269.2668,137.2103 L262.1518,137.5543 L262.0468,135.3733 L263.7378,135.1073 C263.1028,134.7173 262.6028,134.2173 262.2388,133.6053 C261.8768,132.9933 261.6718,132.2003 261.6248,131.2273 Z M263.6531,145.6804 C263.5751,146.9104 263.9191,147.9184 264.6841,148.7024 C265.4511,149.4864 266.5421,149.9234 267.9571,150.0134 C269.3721,150.1034 270.5091,149.8074 271.3681,149.1264 C272.2271,148.4454 272.6951,147.4894 272.7731,146.2584 C272.8511,145.0284 272.5071,144.0174 271.7421,143.2274 C270.9761,142.4374 269.8851,141.9974 268.4701,141.9084 C267.0551,141.8184 265.9181,142.1174 265.0581,142.8034 C264.2001,143.4914 263.7311,144.4504 263.6531,145.6804 Z M261.5301,145.5454 C261.6111,144.2534 261.9661,143.1424 262.5931,142.2114 C263.2201,141.2814 264.0531,140.5744 265.0911,140.0904 C266.1301,139.6064 267.3061,139.4064 268.6241,139.4894 C269.9411,139.5734 271.0841,139.9194 272.0521,140.5314 C273.0201,141.1424 273.7571,141.9494 274.2621,142.9514 C274.7671,143.9534 274.9781,145.1014 274.8971,146.3934 C274.8151,147.6734 274.4611,148.7824 273.8341,149.7184 C273.2061,150.6544 272.3731,151.3624 271.3361,151.8394 C270.2981,152.3184 269.1211,152.5154 267.8031,152.4314 C266.4861,152.3484 265.3431,152.0034 264.3751,151.3994 C263.4061,150.7934 262.6691,149.9874 262.1651,148.9784 C261.6601,147.9704 261.4481,146.8264 261.5301,145.5454 Z M261.9168,160.0378 C261.6988,161.2508 261.9258,162.2908 262.5978,163.1568 C263.2688,164.0228 264.3028,164.5818 265.6978,164.8318 C267.0948,165.0828 268.2578,164.9188 269.1888,164.3408 C270.1198,163.7618 270.6938,162.8648 270.9118,161.6508 C271.1298,160.4368 270.9028,159.3938 270.2328,158.5218 C269.5628,157.6498 268.5288,157.0888 267.1328,156.8388 C265.7368,156.5878 264.5728,156.7548 263.6418,157.3398 C262.7088,157.9248 262.1348,158.8228 261.9168,160.0378 Z M259.8218,159.6618 C260.0518,158.3878 260.5298,157.3228 261.2598,156.4708 C261.9888,155.6178 262.8958,155.0098 263.9828,154.6468 C265.0688,154.2848 266.2618,154.2198 267.5618,154.4528 C268.8598,154.6858 269.9548,155.1608 270.8488,155.8798 C271.7398,156.5968 272.3808,157.4818 272.7678,158.5358 C273.1548,159.5888 273.2338,160.7528 273.0058,162.0268 C272.7788,163.2898 272.3008,164.3498 271.5698,165.2088 C270.8398,166.0678 269.9318,166.6758 268.8468,167.0318 C267.7618,167.3888 266.5688,167.4508 265.2708,167.2178 C263.9718,166.9838 262.8748,166.5128 261.9818,165.8008 C261.0878,165.0888 260.4478,164.2028 260.0628,163.1438 C259.6758,162.0848 259.5958,160.9238 259.8218,159.6618 Z M259.7088,170.6306 L259.1578,172.4936 C258.8518,173.5346 258.7758,174.4066 258.9358,175.1096 C259.0948,175.8126 259.4518,176.3866 260.0078,176.8336 C260.5628,177.2806 261.2908,177.6376 262.1898,177.9026 C263.0768,178.1646 263.8788,178.2606 264.5948,178.1896 C265.3098,178.1166 265.9278,177.8306 266.4488,177.3286 C266.9708,176.8266 267.3848,176.0556 267.6918,175.0146 L268.2428,173.1516 L259.7088,170.6306 Z M258.4278,167.7826 L270.8478,171.4516 L269.5948,175.6926 C269.1648,177.1476 268.5548,178.2686 267.7618,179.0576 C266.9698,179.8456 266.0418,180.3296 264.9798,180.5116 C263.9158,180.6926 262.7578,180.5976 261.5038,180.2276 C260.2498,179.8576 259.2268,179.3076 258.4328,178.5776 C257.6378,177.8476 257.1228,176.9376 256.8858,175.8446 C256.6488,174.7526 256.7458,173.4786 257.1758,172.0246 L258.4278,167.7826 Z M251.8855,186.8161 L261.9855,191.2881 L263.5125,187.8371 L265.2555,188.6081 L261.2335,197.6921 L259.4905,196.9201 L261.0265,193.4531 L250.9275,188.9821 L251.8855,186.8161 Z M248.6043,193.8132 L260.0963,199.7832 L259.0053,201.8832 L247.5133,195.9152 L248.6043,193.8132 Z M246.6014,197.9851 L257.5584,204.8881 L256.0594,207.2671 L246.9114,206.3801 L251.6914,214.2011 L250.1924,216.5811 L239.2354,209.6771 L240.4974,207.6731 L248.0574,212.4371 L243.9864,205.6081 L244.9824,204.0271 L252.8994,204.7521 L245.3394,199.9891 L246.6014,197.9851 Z M237.8514,211.3777 L248.0204,219.3967 L242.7854,226.0347 L241.2894,224.8557 L245.0574,220.0757 L242.2684,217.8757 L238.8434,222.2197 L237.3914,221.0737 L240.8164,216.7307 L237.8814,214.4167 L234.1134,219.1957 L232.6174,218.0167 L237.8514,211.3777 Z M228.157,222.571 C228.806,221.878 229.499,221.377 230.234,221.069 C230.97,220.76 231.704,220.663 232.436,220.773 C233.169,220.884 233.859,221.234 234.507,221.824 L232.801,223.647 C232.342,223.253 231.821,223.064 231.237,223.084 C230.653,223.103 230.112,223.379 229.615,223.91 C229.185,224.37 228.954,224.838 228.923,225.314 C228.89,225.791 229.058,226.202 229.428,226.548 C229.815,226.91 230.228,227.072 230.668,227.036 C231.107,227 231.58,226.846 232.086,226.577 C232.592,226.307 233.132,226.018 233.706,225.712 C234.64,225.218 235.485,224.966 236.24,224.954 C236.995,224.941 237.7,225.243 238.357,225.858 C238.925,226.372 239.28,226.953 239.424,227.603 C239.567,228.253 239.526,228.92 239.3,229.603 C239.074,230.287 238.67,230.939 238.089,231.561 C237.499,232.191 236.866,232.641 236.19,232.913 C235.514,233.184 234.844,233.267 234.182,233.163 C233.52,233.058 232.901,232.754 232.326,232.25 L234.058,230.399 C234.399,230.701 234.815,230.849 235.303,230.842 C235.792,230.834 236.242,230.61 236.655,230.169 C237.018,229.799 237.222,229.395 237.269,228.957 C237.316,228.519 237.154,228.128 236.785,227.782 C236.47,227.487 236.128,227.352 235.758,227.378 C235.387,227.403 234.979,227.528 234.533,227.753 C234.087,227.976 233.585,228.242 233.028,228.549 C232.428,228.865 231.839,229.116 231.26,229.3 C230.681,229.485 230.105,229.528 229.53,229.429 C228.955,229.331 228.388,229.02 227.83,228.498 C227.335,228.035 226.994,227.478 226.806,226.831 C226.619,226.182 226.629,225.49 226.836,224.755 C227.043,224.019 227.483,223.292 228.157,222.571 Z M223.3377,237.0017 L221.6197,238.4377 C221.0147,238.9437 220.6917,239.4627 220.6537,239.9927 C220.6147,240.5227 220.7977,241.0297 221.2007,241.5127 C221.5967,241.9857 222.0527,242.2477 222.5687,242.2987 C223.0857,242.3487 223.6557,242.1127 224.2797,241.5907 L225.9837,240.1667 L223.3377,237.0017 Z M220.7647,230.2307 L229.0697,240.1667 L225.4227,243.2167 C224.6277,243.8807 223.8597,244.2937 223.1177,244.4547 C222.3777,244.6167 221.6877,244.5747 221.0477,244.3297 C220.4087,244.0837 219.8567,243.6827 219.3897,243.1237 C218.8827,242.5187 218.5787,241.8317 218.4767,241.0657 C218.3737,240.2987 218.5647,239.5217 219.0457,238.7327 L213.5117,236.2947 L215.5977,234.5507 L220.7177,236.9257 L222.2227,235.6677 L218.9467,231.7497 L220.7647,230.2307 Z M208.1717,242.3796 C207.1507,243.0696 206.5637,243.9586 206.4097,245.0436 C206.2587,246.1286 206.5787,247.2596 207.3727,248.4346 C208.1667,249.6096 209.0957,250.3286 210.1587,250.5926 C211.2237,250.8566 212.2667,250.6436 213.2877,249.9526 C214.3107,249.2626 214.8997,248.3726 215.0577,247.2836 C215.2147,246.1946 214.8967,245.0636 214.1027,243.8886 C213.3087,242.7126 212.3767,241.9946 211.3087,241.7346 C210.2387,241.4746 209.1937,241.6896 208.1717,242.3796 Z M206.9817,240.6166 C208.0537,239.8926 209.1507,239.4936 210.2707,239.4216 C211.3907,239.3496 212.4587,239.5766 213.4767,240.1026 C214.4937,240.6276 215.3717,241.4376 216.1097,242.5306 C216.8497,243.6246 217.2727,244.7406 217.3807,245.8816 C217.4887,247.0216 217.3007,248.0976 216.8157,249.1096 C216.3307,250.1216 215.5527,250.9906 214.4797,251.7156 C213.4157,252.4336 212.3217,252.8296 211.1967,252.9056 C210.0717,252.9816 209.0037,252.7536 207.9907,252.2256 C206.9797,251.6956 206.1037,250.8846 205.3647,249.7906 C204.6257,248.6976 204.1997,247.5826 204.0867,246.4456 C203.9737,245.3096 204.1617,244.2336 204.6517,243.2176 C205.1417,242.2016 205.9177,241.3346 206.9817,240.6166 Z M200.159,245.2351 L206.334,256.6181 L204.253,257.7481 L198.96,247.9911 L193.919,250.7251 L193.036,249.0991 L200.159,245.2351 Z M191.3855,249.8923 L196.6305,261.7323 L194.4655,262.6913 L189.9695,252.5423 L184.7265,254.8653 L183.9775,253.1733 L191.3855,249.8923 Z M172.9373,260.7595 C173.3753,260.6335 173.8063,260.6255 174.2293,260.7355 C174.6523,260.8445 175.0253,261.0485 175.3483,261.3475 C175.6713,261.6465 175.8973,262.0205 176.0273,262.4715 C176.1563,262.9215 176.1643,263.3625 176.0493,263.7925 C175.9363,264.2225 175.7293,264.5965 175.4283,264.9135 C175.1283,265.2315 174.7583,265.4525 174.3203,265.5785 C173.8583,265.7105 173.4163,265.7225 172.9923,265.6135 C172.5703,265.5035 172.1993,265.2955 171.8793,264.9885 C171.5613,264.6825 171.3363,264.3045 171.2083,263.8545 C171.0793,263.4035 171.0693,262.9665 171.1783,262.5435 C171.2883,262.1205 171.4933,261.7515 171.7933,261.4345 C172.0933,261.1165 172.4753,260.8925 172.9373,260.7595 Z M159.1258,260.2478 L160.9638,273.0658 L158.6188,273.4028 L157.0438,262.4148 L151.3668,263.2278 L151.1048,261.3968 L159.1258,260.2478 Z M149.2791,261.5759 L150.0681,274.5029 L141.6291,275.0169 L141.5121,273.1149 L147.5881,272.7449 L147.3721,269.1989 L141.8501,269.5359 L141.7381,267.6889 L147.2591,267.3519 L147.0321,263.6229 L140.9571,263.9929 L140.8411,262.0919 L149.2791,261.5759 Z M135.8562,262.0535 L135.6092,273.0955 L139.3822,273.1795 L139.3392,275.0845 L129.4082,274.8635 L129.4502,272.9575 L133.2422,273.0425 L133.4892,262.0005 L135.8562,262.0535 Z M120.9324,260.9724 L119.3714,271.9064 L123.1074,272.4394 L122.8384,274.3254 L113.0034,272.9214 L113.2734,271.0354 L117.0274,271.5714 L118.5874,260.6374 L120.9324,260.9724 Z M113.407,259.8445 L110.379,272.4355 L108.076,271.8815 L109.335,266.6475 L103.687,265.2885 L102.428,270.5235 L100.126,269.9695 L103.154,257.3785 L105.456,257.9325 L104.136,263.4175 L109.785,264.7765 L111.104,259.2905 L113.407,259.8445 Z M101.0301,256.7038 L96.8371,268.9558 L88.8381,266.2178 L89.4551,264.4148 L95.2141,266.3868 L96.3631,263.0248 L91.1301,261.2338 L91.7291,259.4838 L96.9631,261.2748 L98.1731,257.7398 L92.4141,255.7678 L93.0311,253.9658 L101.0301,256.7038 Z M82.3035,248.9382 C83.3965,249.4832 84.2275,250.2082 84.7965,251.1122 C85.3655,252.0162 85.6545,253.0252 85.6635,254.1392 C85.6735,255.2522 85.3835,256.4002 84.7935,257.5822 C84.1995,258.7732 83.4415,259.7082 82.5175,260.3842 C81.5945,261.0612 80.5715,261.4402 79.4495,261.5202 C78.3265,261.6012 77.1695,261.3442 75.9775,260.7512 C74.6195,260.0732 73.6575,259.1862 73.0875,258.0882 C72.5185,256.9922 72.3875,255.8032 72.6955,254.5232 L75.0625,255.7052 C74.9695,256.3332 75.0785,256.9152 75.3915,257.4502 C75.7025,257.9842 76.2235,258.4332 76.9515,258.7962 C78.1115,259.3752 79.1885,259.4542 80.1835,259.0342 C81.1785,258.6132 81.9945,257.7632 82.6335,256.4832 C83.2725,255.2032 83.4545,254.0572 83.1805,253.0442 C82.9075,252.0332 82.2345,251.2602 81.1635,250.7262 C80.1155,250.2042 79.1825,250.0922 78.3635,250.3942 C77.5445,250.6952 76.8485,251.2822 76.2755,252.1542 L79.2055,253.6162 L78.4125,255.2052 L73.3475,252.6772 L76.5265,246.3042 L78.4805,247.2792 L77.8855,248.8842 C78.5365,248.5192 79.2175,248.3292 79.9285,248.3112 C80.6405,248.2942 81.4325,248.5032 82.3035,248.9382 Z M68.7176,243.6326 C67.6836,242.9606 66.6366,242.7656 65.5776,243.0486 C64.5196,243.3316 63.6036,244.0676 62.8306,245.2566 C62.0586,246.4456 61.7576,247.5826 61.9296,248.6646 C62.1016,249.7466 62.7046,250.6236 63.7386,251.2956 C64.7736,251.9676 65.8216,252.1636 66.8866,251.8846 C67.9496,251.6056 68.8686,250.8706 69.6416,249.6816 C70.4136,248.4916 70.7116,247.3546 70.5346,246.2686 C70.3576,245.1826 69.7516,244.3046 68.7176,243.6326 Z M69.8766,241.8486 C70.9626,242.5536 71.7576,243.4076 72.2596,244.4106 C72.7626,245.4136 72.9706,246.4866 72.8826,247.6286 C72.7956,248.7706 72.3926,249.8946 71.6736,251.0016 C70.9546,252.1086 70.0916,252.9336 69.0836,253.4776 C68.0756,254.0216 67.0116,254.2676 65.8906,254.2156 C64.7696,254.1636 63.6656,253.7856 62.5796,253.0796 C61.5046,252.3816 60.7126,251.5286 60.2046,250.5226 C59.6966,249.5156 59.4886,248.4436 59.5816,247.3046 C59.6736,246.1656 60.0796,245.0436 60.7986,243.9366 C61.5176,242.8296 62.3786,242.0026 63.3806,241.4556 C64.3836,240.9076 65.4476,240.6616 66.5736,240.7176 C67.6996,240.7726 68.8016,241.1496 69.8766,241.8486 Z M57.0486,235.0622 C56.0986,234.2772 55.0806,233.9642 53.9956,234.1252 C52.9116,234.2862 51.9186,234.9122 51.0156,236.0052 C50.1116,237.0992 49.6846,238.1942 49.7316,239.2892 C49.7786,240.3832 50.2776,241.3242 51.2296,242.1092 C52.1806,242.8942 53.1996,243.2082 54.2886,243.0522 C55.3776,242.8962 56.3736,242.2712 57.2776,241.1772 C58.1806,240.0832 58.6066,238.9882 58.5536,237.8892 C58.5016,236.7902 57.9996,235.8482 57.0486,235.0622 Z M58.4036,233.4222 C59.4026,234.2472 60.0946,235.1862 60.4796,236.2402 C60.8646,237.2932 60.9486,238.3832 60.7316,239.5072 C60.5146,240.6322 59.9866,241.7032 59.1456,242.7202 C58.3056,243.7382 57.3546,244.4592 56.2906,244.8852 C55.2276,245.3112 54.1416,245.4342 53.0336,245.2542 C51.9266,245.0762 50.8726,244.5742 49.8746,243.7502 C48.8856,242.9322 48.1956,241.9952 47.8066,240.9372 C47.4156,239.8792 47.3316,238.7912 47.5536,237.6692 C47.7756,236.5482 48.3066,235.4802 49.1466,234.4622 C49.9866,233.4452 50.9366,232.7212 51.9946,232.2912 C53.0536,231.8632 54.1396,231.7392 55.2516,231.9222 C56.3636,232.1052 57.4146,232.6052 58.4036,233.4222 Z M48.8992,227.948 L47.5442,226.556 C46.7872,225.779 46.0622,225.287 45.3722,225.082 C44.6812,224.877 44.0042,224.907 43.3422,225.173 C42.6802,225.439 42.0142,225.899 41.3422,226.552 C40.6792,227.198 40.2052,227.85 39.9172,228.51 C39.6282,229.169 39.5762,229.848 39.7582,230.549 C39.9412,231.249 40.4122,231.987 41.1692,232.764 L42.5242,234.156 L48.8992,227.948 Z M52.0082,228.224 L42.7312,237.26 L39.6462,234.093 C38.5882,233.006 37.9092,231.924 37.6092,230.846 C37.3092,229.77 37.3402,228.724 37.7032,227.709 C38.0662,226.693 38.7142,225.728 39.6512,224.817 C40.5882,223.904 41.5692,223.281 42.5932,222.945 C43.6192,222.61 44.6652,222.606 45.7332,222.934 C46.8022,223.262 47.8662,223.97 48.9232,225.057 L52.0082,228.224 Z M38.5877,213.1892 L29.7547,219.8212 L32.0217,222.8382 L30.4967,223.9832 L24.5317,216.0382 L26.0567,214.8942 L28.3327,217.9272 L37.1657,211.2952 L38.5877,213.1892 Z M34.0926,206.9275 L23.2766,214.0495 L21.9746,212.0725 L32.7896,204.9495 L34.0926,206.9275 Z M31.4217,203.1345 L20.0527,209.3335 L18.7057,206.8645 L23.9427,199.3105 L14.7827,199.6685 L13.4377,197.1995 L24.8067,191.0005 L25.9407,193.0795 L18.0957,197.3575 L26.0427,197.1335 L26.9377,198.7735 L22.4427,205.3325 L30.2887,201.0555 L31.4217,203.1345 Z M23.9988,188.9636 L12.0348,193.9216 L8.7988,186.1106 L10.5588,185.3816 L12.8898,191.0046 L16.1708,189.6446 L14.0528,184.5336 L15.7618,183.8256 L17.8798,188.9366 L21.3318,187.5056 L19.0018,181.8826 L20.7618,181.1526 L23.9988,188.9636 Z M18.9646,175.0242 C19.2516,175.9292 19.3496,176.7782 19.2586,177.5702 C19.1666,178.3632 18.8936,179.0512 18.4386,179.6352 C17.9836,180.2192 17.3406,180.6502 16.5096,180.9262 L15.7536,178.5452 C16.3226,178.3392 16.7416,177.9772 17.0106,177.4592 C17.2786,176.9402 17.3036,176.3342 17.0836,175.6402 C16.8936,175.0412 16.5986,174.6102 16.1976,174.3482 C15.7986,174.0872 15.3586,174.0332 14.8756,174.1862 C14.3696,174.3462 14.0266,174.6282 13.8426,175.0282 C13.6586,175.4292 13.5616,175.9172 13.5486,176.4902 C13.5366,177.0632 13.5246,177.6742 13.5106,178.3262 C13.4836,179.3822 13.2906,180.2432 12.9316,180.9072 C12.5726,181.5702 11.9646,182.0382 11.1066,182.3102 C10.3816,182.5532 9.6996,182.5792 9.0636,182.3862 C8.4266,182.1932 7.8646,181.8322 7.3796,181.2992 C6.8936,180.7682 6.5226,180.0962 6.2646,179.2852 C6.0036,178.4622 5.9206,177.6902 6.0146,176.9672 C6.1096,176.2462 6.3636,175.6222 6.7786,175.0942 C7.1946,174.5682 7.7636,174.1782 8.4846,173.9232 L9.2506,176.3382 C8.8196,176.4892 8.4876,176.7782 8.2556,177.2082 C8.0236,177.6372 7.9976,178.1402 8.1806,178.7162 C8.3256,179.2132 8.5776,179.5902 8.9366,179.8452 C9.2956,180.0992 9.7156,180.1512 10.1976,179.9982 C10.6096,179.8672 10.8956,179.6342 11.0536,179.2992 C11.2126,178.9642 11.3036,178.5472 11.3256,178.0482 C11.3496,177.5492 11.3626,176.9822 11.3686,176.3462 C11.3866,175.6692 11.4556,175.0312 11.5776,174.4362 C11.6996,173.8412 11.9436,173.3172 12.3116,172.8642 C12.6796,172.4122 13.2276,172.0692 13.9556,171.8382 C14.6036,171.6322 15.2546,171.6072 15.9116,171.7612 C16.5686,171.9162 17.1666,172.2622 17.7066,172.8022 C18.2466,173.3432 18.6666,174.0842 18.9646,175.0242 Z M8.7488,163.7585 L8.3408,161.5575 C8.1968,160.7805 7.9028,160.2455 7.4598,159.9515 C7.0168,159.6575 6.4848,159.5685 5.8668,159.6835 C5.2608,159.7955 4.8088,160.0645 4.5118,160.4895 C4.2138,160.9145 4.1398,161.5285 4.2878,162.3275 L4.6918,164.5105 L8.7488,163.7585 Z M15.9108,164.8375 L3.1788,167.1995 L2.3118,162.5255 C2.1218,161.5065 2.1398,160.6355 2.3618,159.9095 C2.5848,159.1855 2.9608,158.6045 3.4878,158.1675 C4.0158,157.7315 4.6368,157.4465 5.3528,157.3145 C6.1278,157.1695 6.8748,157.2405 7.5938,157.5285 C8.3118,157.8155 8.8948,158.3625 9.3468,159.1695 L14.1858,155.5425 L14.6828,158.2165 L10.1018,161.5135 L10.4588,163.4415 L15.4788,162.5095 L15.9108,164.8375 Z M11.5105,147.9216 C11.4095,146.6926 10.9245,145.7446 10.0545,145.0786 C9.1835,144.4136 8.0415,144.1386 6.6275,144.2536 C5.2135,144.3676 4.1305,144.8246 3.3795,145.6216 C2.6275,146.4186 2.3015,147.4326 2.4015,148.6616 C2.5005,149.8916 2.9875,150.8416 3.8585,151.5136 C4.7295,152.1846 5.8715,152.4626 7.2845,152.3486 C8.6985,152.2336 9.7815,151.7746 10.5325,150.9706 C11.2835,150.1666 11.6105,149.1506 11.5105,147.9216 Z M13.6305,147.7486 C13.7355,149.0396 13.5445,150.1916 13.0575,151.2016 C12.5705,152.2126 11.8485,153.0326 10.8905,153.6606 C9.9335,154.2886 8.7965,154.6566 7.4815,154.7636 C6.1665,154.8706 4.9855,154.6916 3.9395,154.2256 C2.8935,153.7606 2.0475,153.0676 1.4045,152.1486 C0.7605,151.2296 0.3855,150.1246 0.2815,148.8336 C0.1765,147.5556 0.3675,146.4076 0.8545,145.3906 C1.3415,144.3736 2.0635,143.5546 3.0215,142.9316 C3.9795,142.3096 5.1155,141.9446 6.4315,141.8376 C7.7465,141.7316 8.9275,141.9066 9.9735,142.3666 C11.0195,142.8256 11.8645,143.5186 12.5085,144.4436 C13.1535,145.3686 13.5275,146.4706 13.6305,147.7486 Z M12.948,139.5329 L0,139.3229 L0.038,136.9559 L11.136,137.1359 L11.229,131.4009 L13.079,131.4309 L12.948,139.5329 Z M13.1893,129.5798 L0.2953,128.3688 L0.5173,126.0108 L11.5683,127.0498 L12.1053,121.3398 L13.9473,121.5128 L13.1893,129.5798 Z M12.7127,108.196 C12.6087,108.64 12.4047,109.02 12.1037,109.336 C11.8007,109.651 11.4417,109.877 11.0227,110.013 C10.6047,110.149 10.1667,110.164 9.7107,110.057 C9.2547,109.95 8.8657,109.742 8.5457,109.432 C8.2267,109.123 8.0007,108.759 7.8707,108.342 C7.7397,107.925 7.7277,107.495 7.8317,107.05 C7.9417,106.583 8.1477,106.191 8.4487,105.875 C8.7507,105.559 9.1137,105.338 9.5367,105.209 C9.9597,105.08 10.3997,105.069 10.8557,105.175 C11.3127,105.283 11.6977,105.487 12.0137,105.79 C12.3287,106.092 12.5517,106.451 12.6817,106.868 C12.8127,107.285 12.8217,107.727 12.7127,108.196 Z M19.8992,96.3913 L7.8152,91.7363 L8.6662,89.5263 L19.0242,93.5163 L21.0862,88.1643 L22.8122,88.8293 L19.8992,96.3913 Z M23.5477,87.1521 L11.8867,81.5191 L15.5647,73.9071 L17.2797,74.7351 L14.6327,80.2161 L17.8307,81.7611 L20.2367,76.7801 L21.9027,77.5851 L19.4967,82.5661 L22.8617,84.1911 L25.5097,78.7111 L27.2257,79.5391 L23.5477,87.1521 Z M29.701,75.2087 L20.199,69.5787 L18.275,72.8257 L16.636,71.8547 L21.699,63.3077 L23.339,64.2787 L21.406,67.5417 L30.908,73.1717 L29.701,75.2087 Z M37.9656,62.741 L29.2056,56.014 L26.9066,59.008 L25.3966,57.847 L31.4466,49.968 L32.9576,51.129 L30.6486,54.137 L39.4076,60.863 L37.9656,62.741 Z M42.6375,56.7429 L33.1465,47.9329 L34.7565,46.1979 L38.7025,49.8599 L42.6545,45.6019 L38.7085,41.9399 L40.3195,40.2039 L49.8115,49.0139 L48.1995,50.7499 L44.0655,46.9109 L40.1135,51.1689 L44.2485,55.0079 L42.6375,56.7429 Z M51.4353,47.4968 L42.7963,37.8488 L49.0953,32.2088 L50.3663,33.6288 L45.8313,37.6888 L48.2013,40.3348 L52.3223,36.6448 L53.5563,38.0228 L49.4353,41.7138 L51.9283,44.4978 L56.4623,40.4368 L57.7343,41.8568 L51.4353,47.4968 Z M67.3973,34.9167 C66.3883,35.6047 65.3513,35.9767 64.2843,36.0317 C63.2173,36.0877 62.1963,35.8477 61.2183,35.3117 C60.2423,34.7757 59.3813,33.9637 58.6383,32.8727 C57.8873,31.7717 57.4433,30.6537 57.3023,29.5177 C57.1633,28.3817 57.3313,27.3047 57.8083,26.2847 C58.2853,25.2657 59.0743,24.3807 60.1743,23.6307 C61.4283,22.7757 62.6723,22.3687 63.9083,22.4067 C65.1433,22.4457 66.2453,22.9117 67.2113,23.8047 L65.0253,25.2947 C64.5223,24.9067 63.9603,24.7187 63.3413,24.7287 C62.7233,24.7407 62.0773,24.9767 61.4043,25.4347 C60.3353,26.1637 59.7403,27.0647 59.6213,28.1397 C59.5013,29.2127 59.8453,30.3407 60.6513,31.5227 C61.4573,32.7047 62.3683,33.4237 63.3853,33.6787 C64.4023,33.9337 65.4053,33.7237 66.3933,33.0497 C67.3613,32.3897 67.9143,31.6287 68.0503,30.7677 C68.1873,29.9047 68.0143,29.0117 67.5333,28.0857 L64.8273,29.9307 L63.8273,28.4627 L68.5043,25.2737 L72.5163,31.1597 L70.7113,32.3897 L69.6003,31.0867 C69.6013,31.8327 69.4363,32.5207 69.1033,33.1497 C68.7713,33.7787 68.2033,34.3687 67.3973,34.9167 Z M78.6434,25.655 C79.7344,25.08 80.4144,24.261 80.6844,23.199 C80.9544,22.136 80.7584,20.978 80.0974,19.723 C79.4354,18.468 78.5904,17.652 77.5614,17.274 C76.5334,16.896 75.4734,16.995 74.3824,17.57 C73.2904,18.145 72.6084,18.966 72.3324,20.031 C72.0584,21.095 72.2504,22.256 72.9134,23.51 C73.5744,24.765 74.4214,25.58 75.4554,25.955 C76.4904,26.33 77.5524,26.23 78.6434,25.655 Z M79.6354,27.537 C78.4904,28.14 77.3574,28.418 76.2364,28.367 C75.1154,28.317 74.0774,27.975 73.1224,27.342 C72.1684,26.709 71.3844,25.808 70.7684,24.64 C70.1534,23.473 69.8544,22.317 69.8714,21.172 C69.8874,20.027 70.1924,18.977 70.7844,18.024 C71.3754,17.071 72.2454,16.292 73.3904,15.688 C74.5244,15.091 75.6554,14.815 76.7824,14.862 C77.9084,14.91 78.9464,15.252 79.8944,15.887 C80.8434,16.524 81.6254,17.426 82.2414,18.593 C82.8564,19.76 83.1584,20.916 83.1474,22.057 C83.1354,23.2 82.8304,24.25 82.2344,25.205 C81.6364,26.162 80.7704,26.938 79.6354,27.537 Z M91.8318,19.6462 C92.9818,19.2012 93.7518,18.4652 94.1428,17.4412 C94.5318,16.4172 94.4708,15.2442 93.9578,13.9212 C93.4448,12.5992 92.6988,11.6912 91.7218,11.1972 C90.7428,10.7042 89.6788,10.6792 88.5288,11.1252 C87.3788,11.5712 86.6058,12.3072 86.2098,13.3342 C85.8138,14.3602 85.8728,15.5352 86.3858,16.8572 C86.8978,18.1792 87.6458,19.0862 88.6308,19.5782 C89.6148,20.0692 90.6828,20.0922 91.8318,19.6462 Z M92.6018,21.6292 C91.3938,22.0982 90.2358,22.2432 89.1288,22.0632 C88.0198,21.8842 87.0288,21.4252 86.1538,20.6872 C85.2788,19.9482 84.6028,18.9632 84.1258,17.7332 C83.6488,16.5022 83.4838,15.3202 83.6328,14.1842 C83.7808,13.0482 84.2038,12.0412 84.9018,11.1622 C85.5998,10.2832 86.5528,9.6102 87.7598,9.1412 C88.9558,8.6772 90.1098,8.5352 91.2238,8.7112 C92.3368,8.8882 93.3288,9.3472 94.1978,10.0872 C95.0668,10.8292 95.7408,11.8152 96.2178,13.0452 C96.6948,14.2762 96.8618,15.4582 96.7198,16.5902 C96.5758,17.7242 96.1528,18.7322 95.4498,19.6132 C94.7468,20.4942 93.7968,21.1672 92.6018,21.6292 Z M101.9871,16.031 L103.8641,15.531 C104.9131,15.252 105.6961,14.861 106.2141,14.36 C106.7311,13.858 107.0361,13.254 107.1281,12.547 C107.2201,11.839 107.1451,11.032 106.9041,10.127 C106.6661,9.232 106.3301,8.499 105.8961,7.926 C105.4631,7.351 104.8961,6.973 104.1961,6.789 C103.4971,6.605 102.6221,6.653 101.5731,6.932 L99.6961,7.433 L101.9871,16.031 Z M100.2231,18.607 L96.8891,6.094 L101.1621,4.956 C102.6281,4.565 103.9031,4.503 104.9891,4.769 C106.0741,5.035 106.9711,5.575 107.6791,6.387 C108.3871,7.201 108.9101,8.239 109.2461,9.503 C109.5831,10.766 109.6461,11.927 109.4361,12.984 C109.2271,14.042 108.7171,14.956 107.9081,15.727 C107.0991,16.498 105.9621,17.079 104.4961,17.469 L100.2231,18.607 Z M119.9021,14.28 L118.4601,3.33 L114.7171,3.822 L114.4681,1.933 L124.3181,0.635 L124.5671,2.525 L120.8071,3.02 L122.2501,13.97 L119.9021,14.28 Z M127.5828,13.4343 L126.6868,0.5153 L129.0498,0.3513 L129.9448,13.2703 L127.5828,13.4343 Z M132.1775,12.948 L132.3875,-9.09494702e-13 L135.1985,0.045 L139.1915,8.325 L143.3935,0.178 L146.2045,0.223 L145.9945,13.172 L143.6275,13.134 L143.7725,4.199 L140.0505,11.225 L138.1825,11.195 L134.6905,4.052 L134.5455,12.986 L132.1775,12.948 Z M148.1766,13.4353 L149.6936,0.5743 L158.0896,1.5643 L157.8666,3.4563 L151.8226,2.7443 L151.4056,6.2713 L156.8996,6.9193 L156.6826,8.7563 L151.1896,8.1093 L150.7516,11.8203 L156.7966,12.5333 L156.5726,14.4253 L148.1766,13.4353 Z M162.7977,15.8484 C161.8667,15.6574 161.0787,15.3274 160.4317,14.8624 C159.7847,14.3954 159.3177,13.8214 159.0287,13.1384 C158.7417,12.4554 158.6797,11.6854 158.8437,10.8254 L161.2897,11.3274 C161.1937,11.9244 161.3047,12.4664 161.6267,12.9534 C161.9477,13.4424 162.4647,13.7594 163.1777,13.9064 C163.7937,14.0324 164.3137,13.9854 164.7367,13.7634 C165.1597,13.5414 165.4227,13.1834 165.5247,12.6884 C165.6317,12.1684 165.5547,11.7314 165.2937,11.3754 C165.0327,11.0194 164.6557,10.6964 164.1607,10.4064 C163.6667,10.1164 163.1387,9.8054 162.5767,9.4764 C161.6677,8.9374 161.0117,8.3494 160.6077,7.7114 C160.2027,7.0754 160.0917,6.3154 160.2727,5.4334 C160.4137,4.6814 160.7247,4.0754 161.2037,3.6134 C161.6827,3.1514 162.2727,2.8384 162.9737,2.6734 C163.6747,2.5094 164.4427,2.5124 165.2767,2.6834 C166.1207,2.8574 166.8367,3.1614 167.4207,3.5964 C168.0047,4.0324 168.4257,4.5584 168.6827,5.1774 C168.9397,5.7974 169.0027,6.4844 168.8727,7.2384 L166.3907,6.7284 C166.4697,6.2784 166.3787,5.8474 166.1177,5.4344 C165.8567,5.0224 165.4297,4.7544 164.8377,4.6334 C164.3327,4.5174 163.8817,4.5534 163.4837,4.7434 C163.0857,4.9314 162.8357,5.2744 162.7347,5.7694 C162.6477,6.1924 162.7117,6.5544 162.9267,6.8564 C163.1417,7.1594 163.4607,7.4424 163.8857,7.7044 C164.3097,7.9684 164.7977,8.2574 165.3507,8.5734 C165.9337,8.9194 166.4547,9.2904 166.9157,9.6874 C167.3747,10.0834 167.7127,10.5534 167.9297,11.0954 C168.1457,11.6374 168.1767,12.2824 168.0227,13.0314 C167.8857,13.6964 167.5897,14.2774 167.1357,14.7754 C166.6807,15.2744 166.0847,15.6264 165.3507,15.8344 C164.6147,16.0424 163.7647,16.0464 162.7977,15.8484 Z M177.6277,12.4304 L179.7477,13.1484 C180.4947,13.4014 181.1067,13.4064 181.5787,13.1624 C182.0517,12.9194 182.3897,12.4994 182.5917,11.9044 C182.7887,11.3204 182.7747,10.7934 182.5487,10.3264 C182.3227,9.8604 181.8247,9.4954 181.0537,9.2354 L178.9507,8.5234 L177.6277,12.4304 Z M173.1897,18.1544 L177.3427,5.8884 L181.8467,7.4124 C182.8267,7.7454 183.5797,8.1864 184.1047,8.7344 C184.6277,9.2834 184.9517,9.8944 185.0747,10.5674 C185.1987,11.2414 185.1437,11.9214 184.9097,12.6114 C184.6567,13.3594 184.2307,13.9764 183.6287,14.4624 C183.0277,14.9494 182.2657,15.1924 181.3417,15.1924 L182.1437,21.1864 L179.5667,20.3144 L178.9277,14.7064 L177.0697,14.0774 L175.4327,18.9134 L173.1897,18.1544 Z M190.1014,22.574 C191.2224,23.088 192.2864,23.128 193.2924,22.693 C194.2984,22.259 195.0974,21.397 195.6874,20.107 C196.2784,18.818 196.4104,17.65 196.0814,16.605 C195.7534,15.559 195.0294,14.779 193.9074,14.265 C192.7864,13.752 191.7194,13.712 190.7074,14.143 C189.6964,14.575 188.8944,15.435 188.3044,16.725 C187.7134,18.014 187.5844,19.183 187.9184,20.231 C188.2524,21.28 188.9804,22.06 190.1014,22.574 Z M189.2154,24.509 C188.0384,23.97 187.1264,23.24 186.4834,22.321 C185.8384,21.402 185.4774,20.372 185.3974,19.229 C185.3164,18.087 185.5514,16.916 186.1004,15.716 C186.6504,14.516 187.3834,13.574 188.3014,12.888 C189.2194,12.203 190.2364,11.803 191.3534,11.691 C192.4694,11.579 193.6164,11.792 194.7934,12.332 C195.9594,12.866 196.8674,13.594 197.5174,14.515 C198.1664,15.437 198.5284,16.468 198.6034,17.607 C198.6774,18.748 198.4404,19.917 197.8914,21.117 C197.3414,22.317 196.6104,23.261 195.6994,23.948 C194.7864,24.637 193.7694,25.035 192.6474,25.145 C191.5254,25.255 190.3814,25.043 189.2154,24.509 Z M196.7254,27.9441 L203.2404,16.7521 L205.2874,17.9431 L199.7034,27.5371 L204.6594,30.4221 L203.7284,32.0201 L196.7254,27.9441 Z M205.2732,33.0242 L212.6592,22.3862 L214.6042,23.7372 L208.2732,32.8552 L212.9842,36.1262 L211.9292,37.6452 L205.2732,33.0242 Z M224.1258,43.0935 C223.7898,42.7845 223.5588,42.4215 223.4318,42.0035 C223.3038,41.5855 223.2828,41.1605 223.3698,40.7295 C223.4558,40.2975 223.6578,39.9095 223.9748,39.5645 C224.2918,39.2195 224.6628,38.9825 225.0898,38.8555 C225.5168,38.7285 225.9428,38.7095 226.3708,38.8005 C226.7978,38.8915 227.1798,39.0905 227.5158,39.3995 C227.8698,39.7245 228.1108,40.0965 228.2378,40.5145 C228.3648,40.9325 228.3808,41.3575 228.2858,41.7885 C228.1908,42.2205 227.9848,42.6095 227.6688,42.9535 C227.3518,43.2995 226.9838,43.5355 226.5658,43.6625 C226.1478,43.7895 225.7258,43.8075 225.2988,43.7175 C224.8708,43.6255 224.4798,43.4185 224.1258,43.0935 Z M131.10228,28 L140.21706,101.57816 L158.60284,29.7082 L149.09386,103.26154 L184.80254,38.18934 L157.26986,107.09696 L208.05742,52.9076 L164.22822,112.84206 L226.90748,72.94318 L169.53532,120.13622 L240.16574,97.03464 L172.85536,128.52246 L247,123.6665 L173.98394,137.46934 L246.97956,151.16998 L172.84368,146.42206 L240.1088,177.81206 L169.51196,154.80976 L226.81696,201.9225 L164.19318,162.11268 L207.93916,221.98436 L157.2246,167.86654 L184.66384,236.7362 L149.04568,171.71364 L158.451,245.25384 L140.16596,173.4087 L130.94898,247 L131.14608,172.84806 L103.8835,241.86518 L122.55398,170.06676 L78.95984,230.17496 L114.92548,165.24 L57.7402,212.65934 L108.74384,158.66854 L41.55902,190.41916 L104.3945,150.76702 L31.43392,164.85602 L102.1534,142.03184 L28,137.573 L102.1607,133.00904 L31.47188,110.28414 L104.41494,124.27094 L41.63494,84.7064 L108.77304,116.36358 L57.84678,62.44578 L114.9649,109.78482 L79.09124,44.90096 L122.59778,104.94492 L104.03242,33.17278 L131.19572,102.15194 L131.10228,28 Z"></path> 
                
    
</svg>